<svg width="211" height="28" viewBox="0 0 211 28" fill="none" xmlns="http://www.w3.org/2000/svg">
<path d="M190.985 16.7917L190.997 16.7936C191.032 16.8039 191.097 16.8194 191.196 16.8219C191.285 16.8306 191.296 16.8905 191.296 16.8905L191.343 17.0224C191.343 17.0224 191.478 17.0672 191.531 17.1237C191.589 17.1845 191.487 17.1782 191.456 17.1986C191.428 17.2205 191.329 17.2098 191.329 17.2098L191.402 17.3286L191.273 17.4016L191.071 17.3447L191.146 17.4367L191.071 17.5082C191.071 17.5082 190.77 17.424 190.77 17.3929C190.77 17.3641 190.682 17.3145 190.682 17.3145L190.451 17.332L190.49 17.2434L190.732 17.1709C190.732 17.1709 190.916 17.1047 190.946 17.092C190.975 17.0857 190.783 17.0215 190.765 17.0068C190.748 16.9884 190.682 16.9402 190.682 16.9402C190.682 16.9402 190.648 16.9445 190.6 16.9445C190.522 16.9811 190.45 17.0137 190.372 17.0526L190.451 17.0696C190.451 17.0696 190.331 17.1777 190.321 17.1874C190.312 17.1977 190.297 17.2337 190.211 17.2463C190.121 17.2663 190.024 17.2624 189.974 17.2663C189.96 17.2663 189.952 17.2682 189.952 17.2682C189.902 17.2901 189.868 17.313 189.828 17.332L189.915 17.3072C189.915 17.3072 190.003 17.295 190.003 17.3072C190.003 17.3164 190.082 17.3724 190.082 17.3724C190.082 17.3724 190.157 17.4118 190.135 17.4172C190.119 17.4264 190.108 17.4391 190.047 17.4391C189.988 17.4391 189.915 17.4464 189.888 17.4513C189.868 17.4557 189.745 17.4834 189.745 17.4834L189.766 17.4041C189.766 17.4041 189.736 17.3953 189.713 17.3982C189.417 17.5676 189.142 17.7482 188.885 17.9473C188.883 17.9745 188.876 17.9974 188.876 17.9974L189.022 17.9892L189.235 18.0573L189.317 18.0953L189.488 18.0855L189.438 18.1478L189.408 18.253L189.411 18.3523L189.491 18.3742L189.637 18.2661L189.648 18.1284C189.648 18.1284 189.802 18.1084 189.872 18.0724C189.946 18.0349 190.033 17.9556 190.033 17.9341C190.033 17.9059 189.994 17.8251 189.994 17.8251C189.994 17.8251 190.109 17.754 190.124 17.7336C190.145 17.7093 190.155 17.609 190.155 17.609C190.155 17.609 190.129 17.5321 190.238 17.5214C190.342 17.5136 190.449 17.5136 190.471 17.5126C190.495 17.5097 190.552 17.4956 190.607 17.5072C190.663 17.517 190.68 17.5666 190.68 17.5666L190.798 17.5705L190.73 17.664L190.641 17.7409L190.764 17.7613L190.843 17.7842L191.01 17.6869L191.096 17.6143C191.096 17.6143 191.107 17.6333 191.113 17.6494C191.486 17.2454 191.928 16.8998 192.403 16.6238L192.29 16.4602L191.94 16.466C191.611 16.56 191.294 16.669 190.985 16.7917Z" fill="white"/>
<path d="M188.743 19.1115L188.798 19.1344L189.053 19.1076L189.263 19.0307L189.336 18.9343L189.17 18.9708L189.117 19.0439L189.08 19.0404L188.844 19.0623L188.743 19.1115Z" fill="white"/>
<path d="M188.813 18.6171L188.72 18.5962C188.72 18.5962 188.619 18.603 188.6 18.621C188.585 18.6381 188.516 18.6721 188.492 18.6731C188.465 18.6731 188.301 18.75 188.301 18.75L188.324 18.7787L188.448 18.7597L188.619 18.731L188.694 18.7851L188.823 18.7632L188.923 18.7271L188.886 18.6721L188.813 18.6171Z" fill="white"/>
<path d="M188.794 18.8083L188.694 18.8205L188.531 18.9072L188.421 19.1043L188.533 19.1092L188.596 18.985L188.74 18.8526L188.835 18.8561L188.706 18.9554L188.812 18.9607L188.893 18.9242L188.898 19.0001L188.999 18.9782L189.07 18.8634L189.016 18.8195L188.794 18.8083Z" fill="white"/>
<path d="M190.528 18.3879L190.514 18.3923C190.456 18.4025 190.444 18.3879 190.41 18.4274C190.378 18.4673 190.335 18.478 190.335 18.478L190.214 18.5379L190.253 18.551L190.449 18.5101C190.482 18.4712 190.502 18.4274 190.528 18.3879Z" fill="white"/>
<path d="M189.783 25.9024V25.8976C189.783 25.8479 189.755 25.7481 189.727 25.7058C189.698 25.6605 189.671 25.5924 189.671 25.5924L189.651 25.5344C189.651 25.5344 189.642 25.5583 189.618 25.5369C189.59 25.5116 189.518 25.4517 189.518 25.4517L189.513 25.3738L189.469 25.2025L189.485 25.1387L189.493 24.8637L189.387 24.6694L189.394 24.5711C189.398 24.5589 189.387 24.4816 189.387 24.4816L189.443 24.3496L189.409 24.3029V24.2635L189.399 24.191C189.399 24.191 189.397 24.1359 189.397 24.1004C189.397 24.0863 189.393 24.0615 189.392 24.0366C188.715 23.97 188.074 23.8935 187.473 23.8083C187.986 24.6208 188.787 25.3373 189.783 25.9024Z" fill="white"/>
<path d="M186.807 21.6325C186.807 22.3325 187.005 23.0052 187.36 23.622C187.986 23.7159 188.654 23.7977 189.36 23.8717L189.345 23.7305C189.345 23.7305 189.312 23.693 189.275 23.6726C189.24 23.6473 189.275 23.6833 189.24 23.6473C189.21 23.6166 189.076 23.5411 189.076 23.5411C189.076 23.5411 188.944 23.4754 188.901 23.4574C188.857 23.4331 188.788 23.4112 188.774 23.3873C188.756 23.363 188.743 23.3372 188.743 23.3372C188.743 23.3372 188.583 23.0748 188.548 23.0378C188.514 22.9935 188.488 22.9595 188.47 22.939C188.452 22.9137 188.354 22.8275 188.349 22.812C188.338 22.7964 188.251 22.7365 188.251 22.7365C188.251 22.7365 188.206 22.6771 188.228 22.6377C188.247 22.5949 188.265 22.5691 188.283 22.5481C188.3 22.5253 188.289 22.4858 188.276 22.4683C188.261 22.4391 188.259 22.4508 188.261 22.4182C188.27 22.388 188.251 22.3797 188.27 22.3559C188.286 22.332 188.432 22.202 188.436 22.1801C188.441 22.1587 188.515 22.1096 188.545 22.0872C188.574 22.0623 188.6 21.9986 188.612 21.9772C188.621 21.9518 188.651 21.854 188.618 21.8204C188.584 21.7839 188.504 21.6637 188.504 21.6637L188.441 21.6135L188.372 21.6247C188.367 21.6384 188.338 21.6457 188.327 21.6632C188.323 21.6758 188.32 21.6939 188.32 21.6939L188.291 21.7167L188.218 21.7026L188.14 21.6676L188.057 21.6457L187.976 21.5678L187.871 21.524L187.844 21.4203L187.721 21.3098L187.681 21.2889L187.615 21.2747L187.538 21.266L187.43 21.2485L187.357 21.2402L187.273 21.1613L187.116 21.0659L187.019 21.0791C187.019 21.0791 186.941 21.0976 186.923 21.0976C186.923 21.0976 186.876 21.0927 186.851 21.0907C186.82 21.267 186.807 21.4471 186.807 21.6325Z" fill="white"/>
<path d="M189.779 19.0887C189.779 19.0887 189.766 19.1028 189.75 19.1135C189.875 19.1048 190.003 19.0979 190.13 19.0843C190.177 18.986 190.227 18.8974 190.279 18.7976L189.927 18.9451L189.779 19.0887Z" fill="white"/>
<path d="M196.667 17.3314C196.728 17.3353 196.747 17.3455 196.747 17.3455L196.758 17.2915L196.871 17.3002L196.873 17.2735L196.994 17.2316C196.97 17.1931 196.947 17.1566 196.923 17.1211L196.809 17.1917C196.809 17.1917 196.653 17.161 196.638 17.1712C196.622 17.178 196.526 17.1878 196.526 17.1878L196.562 17.2666C196.562 17.2671 196.608 17.327 196.667 17.3314Z" fill="white"/>
<path d="M197.444 19.0963L197.455 19.0778C197.347 19.0735 197.244 19.071 197.143 19.0667L197.298 19.1041L197.444 19.0963Z" fill="white"/>
<path d="M196.651 19.0717C196.651 19.0717 196.689 19.0659 196.734 19.0576C196.66 19.0557 196.589 19.0557 196.514 19.0518L196.523 19.0717H196.651Z" fill="white"/>
<path d="M197.163 20.1228V20.1077C197.103 20.0995 197.083 20.1574 197.083 20.1574L197.257 20.4285L197.298 20.54L197.389 20.6612C197.389 20.6612 197.43 20.742 197.435 20.7625C197.442 20.7858 197.493 20.8817 197.493 20.8817C197.493 20.8817 197.51 20.9474 197.534 20.9732C197.552 20.9981 197.706 21.1947 197.73 21.2186C197.764 21.2414 197.803 21.2565 197.894 21.2984C197.988 21.3524 197.988 21.4045 197.988 21.4045L197.975 21.4483L198.087 21.5062C198.087 21.4546 198.087 21.3972 198.086 21.3441L198.063 21.3529C197.989 21.3558 197.978 21.3198 197.978 21.2901C197.978 21.2643 197.911 21.1889 197.906 21.1251C197.895 21.0638 197.83 20.962 197.83 20.962C197.83 20.962 197.769 20.9163 197.758 20.8691C197.747 20.8272 197.7 20.7912 197.661 20.7605C197.627 20.7328 197.591 20.7162 197.575 20.6675C197.559 20.6169 197.557 20.5561 197.518 20.5054C197.478 20.4485 197.423 20.4387 197.423 20.4387C197.423 20.4387 197.406 20.4183 197.393 20.3896C197.376 20.3618 197.23 20.1574 197.216 20.1394C197.201 20.116 197.163 20.1228 197.163 20.1228Z" fill="white"/>
<path d="M198.41 19.1841L198.447 19.1607L198.419 19.13L198.413 19.1198C198.285 19.1111 198.155 19.1062 198.026 19.1008L198.076 19.1549L198.154 19.1758L198.071 19.1962V19.3116L198.092 19.3973C198.092 19.3973 198.136 19.4099 198.154 19.4133C198.163 19.4133 198.193 19.4401 198.193 19.4401C198.193 19.4401 198.265 19.482 198.302 19.4859C198.333 19.4956 198.352 19.4859 198.352 19.4859C198.372 19.4786 198.482 19.462 198.482 19.462C198.482 19.462 198.447 19.3885 198.444 19.3832L198.442 19.3306L198.429 19.3072L198.387 19.2843L198.373 19.2639V19.2235L198.325 19.2177L198.315 19.2006V19.1607L198.41 19.1841Z" fill="white"/>
<path d="M203.394 19.7803C203.417 19.7954 203.467 19.8056 203.467 19.8056C203.467 19.8056 203.511 19.8625 203.535 19.8791C203.554 19.8942 203.622 19.936 203.622 19.936L203.669 19.9725L203.574 19.9779L203.618 19.993L203.669 20.049L203.683 20.0928L203.723 20.1059C203.723 20.1059 203.729 20.123 203.694 20.1906C203.668 20.2602 203.7 20.3371 203.635 20.4379L203.63 20.4398C203.744 20.7918 203.805 21.1549 203.813 21.5288L203.854 21.483L203.872 21.4445L203.897 21.4256V21.4762L203.867 21.5448L203.815 21.5808V21.6339C203.815 21.6957 203.813 21.7546 203.809 21.8208L203.842 21.8184L203.901 21.8559L203.842 21.8675L203.859 21.9089L203.813 21.9206L203.804 21.9187C203.804 21.9561 203.801 21.9897 203.795 22.0306L203.809 22.0715L203.882 22.1134L203.893 22.1586H203.825L203.795 22.2229L203.786 22.2789L203.757 22.3129C203.727 22.4707 203.691 22.6293 203.643 22.7807C203.682 22.7866 203.717 22.7929 203.744 22.7929C203.824 22.7929 203.853 22.806 203.895 22.8021C203.938 22.7929 204.035 22.7929 204.081 22.7929C204.125 22.7948 204.115 22.8197 204.115 22.8197L203.97 22.8382L203.667 22.8654L203.62 22.8615C203.54 23.1117 203.432 23.3541 203.299 23.5927C203.573 23.5469 203.835 23.505 204.081 23.4598L204.094 23.4437C204.099 23.4276 204.157 23.4018 204.157 23.4018C204.157 23.4018 204.189 23.3249 204.258 23.2923C204.332 23.2582 204.352 23.2237 204.39 23.2096C204.429 23.1896 204.493 23.1755 204.52 23.1852C204.548 23.1935 204.569 23.2354 204.569 23.2354L204.662 23.2125C204.662 23.2125 204.624 23.2125 204.662 23.1726C204.699 23.1293 204.753 23.0407 204.753 23.0407L204.891 23.0358L204.902 22.9618L205.234 23.0197L205.173 23.1117L205.116 23.1813L205.169 23.2354L205.173 23.2398C205.309 23.2105 205.435 23.1813 205.563 23.1463V23.0592L205.659 22.9058L205.7 22.9438L205.78 23.0923C205.956 23.0426 206.126 22.9973 206.288 22.9467C206.496 22.5257 206.607 22.0851 206.607 21.6339C206.607 21.1476 206.485 20.673 206.247 20.2247C205.781 20.085 205.251 19.9584 204.662 19.8392L204.654 19.8655L204.607 19.8786L204.585 19.8226C204.564 19.8187 204.551 19.8143 204.534 19.8129L204.413 19.8187L204.345 19.8528L204.275 19.8163L204.325 19.7715C204.253 19.7589 204.173 19.7443 204.093 19.7272C204.088 19.7404 204.078 19.7511 204.072 19.7613C204.059 19.7817 203.917 19.8046 203.917 19.8046L203.877 19.7564C203.877 19.7564 203.883 19.7258 203.879 19.6985L203.877 19.6888C203.744 19.6678 203.611 19.642 203.474 19.6235C203.474 19.6235 203.44 19.6537 203.39 19.698C203.329 19.7477 203.375 19.7574 203.394 19.7803ZM203.992 22.9443L203.91 22.9034L203.966 22.8683L204.034 22.9248L203.992 22.9443ZM206.172 22.5325L206.299 22.5174L206.44 22.4478L206.453 22.459L206.414 22.5276L206.33 22.5734L206.168 22.5534L206.185 22.5325H206.172ZM204.929 22.2224L205.089 22.2774L205.083 22.3202L205.137 22.3923L205.156 22.4171L205.265 22.3397L205.361 22.2871L205.406 22.31L205.616 22.3368L205.849 22.4283L205.957 22.4867L205.963 22.5349L206.123 22.5539L206.119 22.6157L206.048 22.6386L206.097 22.6474L206.179 22.7603L206.249 22.808L206.292 22.8756L206.207 22.8557L206.076 22.8352L205.995 22.696L205.884 22.6741L205.763 22.7345L205.783 22.7647L205.712 22.8056L205.568 22.7759L205.452 22.7856L205.337 22.7574L205.33 22.754L205.436 22.7131L205.398 22.6391L205.337 22.5354L205.218 22.5042L205.053 22.4473L204.974 22.4711L204.961 22.4118L205.049 22.3616L204.971 22.3679L204.915 22.3115H204.829L204.821 22.2594L204.929 22.2224ZM204.071 22.3207L204.157 22.2686L204.206 22.2798L204.122 22.3704L204.16 22.4599L204.215 22.4994V22.5588L204.113 22.5057L204.071 22.4103L204.013 22.441L204.017 22.5291L204.021 22.6211L203.949 22.6118L203.961 22.5057L203.899 22.4181L203.949 22.2983L204.034 22.1796L204.159 22.1426L204.278 22.1148L204.328 22.125L204.219 22.1776L204.072 22.1878L204.021 22.2798L204.071 22.3207ZM203.925 21.2766L204.005 21.2897L204.012 21.3209L203.989 21.354L203.96 21.3229L203.925 21.2766ZM204.136 21.4543L204.074 21.4854V21.3978L204.061 21.3676L204.151 21.411L204.136 21.4543ZM204.166 21.4591L204.191 21.4703L204.183 21.5322L204.174 21.5789H204.136L204.121 21.5171L204.166 21.4591ZM204.277 22.9277L204.231 22.9063L204.418 22.8075L204.43 22.7944L204.478 22.8192L204.277 22.9277ZM204.429 21.593L204.416 21.6139L204.449 21.6392L204.46 21.7006L204.436 21.7347L204.392 21.6982L204.37 21.7347L204.392 21.7804L204.372 21.8233H204.342L204.27 21.7566L204.271 21.7118L204.256 21.6777L204.215 21.6728L204.151 21.6699L204.121 21.7215H204.08L204.116 21.6543L204.156 21.6388L204.15 21.6076L204.226 21.613L204.221 21.6358L204.296 21.6183L204.306 21.576L204.354 21.5516L204.334 21.52L204.416 21.5516L204.429 21.593ZM204.325 21.4703L204.29 21.4762L204.256 21.4353L204.29 21.391L204.246 21.3637L204.278 21.3316L204.325 21.3564L204.337 21.4046L204.306 21.4231L204.325 21.4703ZM204.262 19.8674L204.347 19.8942L204.382 19.9536L204.372 20.0388L204.306 20.0256L204.295 19.9429L204.237 19.9239L204.19 19.8942L204.262 19.8674ZM204.088 21.2143L204.174 21.2416L204.231 21.3068L204.206 21.3302H204.175L204.146 21.2732L204.087 21.2654L204.06 21.2352L204.088 21.2143ZM203.92 20.8955L203.992 20.9476L203.996 20.9617L204.034 21.022L204.013 21.079L203.982 21.0984L203.974 21.1476L204.021 21.1841L204.024 21.2411L203.972 21.2576L203.953 21.1963L203.914 21.1841L203.88 21.1754L203.843 21.0761L203.894 21.0907L203.88 20.9471L203.863 20.9183L203.92 20.8955ZM203.778 20.471L203.805 20.4481L203.86 20.4564L203.862 20.4949L203.838 20.6355L203.81 20.6769L203.747 20.6039L203.742 20.5552L203.778 20.471Z" fill="white"/>
<path d="M197.216 18.8436L197.098 18.7666C197.098 18.7666 197.238 18.6235 197.201 18.6235C197.163 18.6279 196.889 18.644 196.889 18.644L196.923 18.7438L196.822 18.7618L196.793 18.7199L196.792 18.6805L196.607 18.6761L196.569 18.7472L196.462 18.8382L196.464 18.8981C196.762 18.902 197.05 18.9102 197.336 18.9209L197.216 18.8436Z" fill="white"/>
<path d="M205.422 23.3523C205.405 23.3572 205.383 23.362 205.364 23.3669L205.377 23.3708C205.377 23.3708 205.405 23.3615 205.422 23.3523Z" fill="white"/>
<path d="M190.407 16.5529C190.436 16.5529 190.465 16.5461 190.483 16.5432C190.495 16.5432 190.509 16.5334 190.527 16.5242C190.488 16.532 190.448 16.5412 190.407 16.5529Z" fill="white"/>
<path d="M190.724 16.5374L191.118 16.515V16.5754C191.355 16.4848 191.6 16.4099 191.85 16.3349L191.854 16.3218L192.065 16.2429C191.85 16.2741 191.636 16.3067 191.423 16.3451L191.257 16.4746L191.13 16.4021C191.047 16.4157 190.969 16.4332 190.885 16.4503L190.724 16.5374Z" fill="white"/>
<path d="M185.73 18.3556V18.3385C185.73 18.322 185.685 18.1487 185.685 18.1487L185.588 18.0713C185.588 18.0713 185.454 17.9983 185.437 17.9983C185.417 17.9983 185.294 17.9939 185.294 17.9939L185.239 17.99C183.647 18.8121 182.583 19.8426 182.28 20.9651C182.635 20.6487 183.259 20.3552 184.099 20.0924C184.448 19.4639 185.004 18.8793 185.73 18.3556Z" fill="white"/>
<path d="M184.049 23.0796C183.214 22.8162 182.596 22.5159 182.254 22.2019C182.77 24.4459 186.328 26.3175 191.111 27.0151C187.654 26.355 184.994 24.8869 184.049 23.0796Z" fill="white"/>
<path d="M185.649 18.6104L185.724 18.6303C185.724 18.6303 185.807 18.6206 185.781 18.6065C185.75 18.5904 185.716 18.5768 185.716 18.5768L185.743 18.5378C185.709 18.5622 185.679 18.586 185.649 18.6104Z" fill="white"/>
<path d="M190.474 26.448C190.474 26.448 190.568 26.5259 190.582 26.5429C190.599 26.5609 190.719 26.6378 190.719 26.6378C190.719 26.6378 190.568 26.6403 190.509 26.612C190.452 26.5867 190.17 26.4246 190.133 26.4042C190.095 26.3852 189.91 26.2051 189.869 26.155C189.85 26.1316 189.84 26.1155 189.829 26.1043C188.704 25.492 187.809 24.6908 187.266 23.7761C186.102 23.6009 185.095 23.3911 184.275 23.1458C185.362 25.05 188.437 26.5454 192.328 27.0531C191.663 26.8924 191.039 26.6792 190.465 26.4246L190.474 26.448Z" fill="white"/>
<path d="M205.877 23.4184C205.893 23.4476 205.928 23.4719 205.961 23.4919C206.046 23.3784 206.118 23.2616 206.185 23.1458C206.078 23.1808 205.967 23.2105 205.855 23.2392L205.866 23.2601C205.869 23.302 205.84 23.3546 205.877 23.4184Z" fill="white"/>
<path d="M185.668 18.7187L185.609 18.6389C185.064 19.0624 184.626 19.5297 184.322 20.0252C184.626 19.9357 184.953 19.8544 185.299 19.776C185.257 19.7648 185.247 19.7512 185.247 19.7512L185.215 19.5667L185.225 19.4747C185.225 19.4747 185.275 19.2693 185.358 19.207C185.444 19.1447 185.609 18.9801 185.668 18.9193C185.729 18.8526 185.723 18.7854 185.723 18.7854L185.769 18.7757L185.668 18.7187Z" fill="white"/>
<path d="M185.742 20.0146C185.715 19.9917 185.663 19.9669 185.663 19.9669C185.663 19.9669 185.598 20.0165 185.598 20.0365C185.598 20.054 185.684 20.1504 185.684 20.1504L185.698 20.2253L185.769 20.346L185.784 20.4429C185.784 20.4429 185.822 20.4731 185.827 20.4833C185.829 20.4935 185.861 20.5349 185.861 20.5349L185.88 20.5661L185.811 20.5807L185.718 20.4896L185.678 20.4561L185.705 20.4069C185.705 20.4069 185.684 20.3641 185.668 20.3519C185.651 20.3378 185.63 20.3149 185.588 20.294C185.544 20.2701 185.49 20.2502 185.49 20.2502L185.567 20.2044L185.557 20.1611C185.557 20.1611 185.523 20.1421 185.523 20.1285V20.0696L185.466 19.9337L185.462 19.9055C185.003 20.0082 184.586 20.1134 184.21 20.2244C183.977 20.6717 183.85 21.1463 183.85 21.6311C183.85 22.0843 183.963 22.5243 184.169 22.9454C184.975 23.1907 185.987 23.4098 187.153 23.5918C186.82 22.9756 186.642 22.3165 186.642 21.6311C186.642 21.4281 186.658 21.2276 186.686 21.0309C186.622 21.0129 186.631 21.0129 186.595 21.0022C186.56 20.9935 186.489 20.9604 186.489 20.9604C186.489 20.9604 186.462 20.9419 186.44 20.9419C186.412 20.9419 186.349 20.9253 186.339 20.9175L186.25 20.8732L186.177 20.7944L186.159 20.7559L186.217 20.6912L186.196 20.5909C186.196 20.5909 186.07 20.493 186.05 20.4721C186.023 20.4536 186.007 20.4259 185.991 20.422C185.976 20.4161 185.931 20.3952 185.937 20.3723C185.942 20.3495 185.95 20.3577 185.942 20.331C185.931 20.2998 185.872 20.2239 185.872 20.2239C185.872 20.2239 185.788 20.1251 185.768 20.0934C185.751 20.0691 185.769 20.0394 185.742 20.0146Z" fill="white"/>
<path d="M186.88 17.3509L187.16 17.276C187.16 17.276 187.479 17.2239 187.5 17.22C187.517 17.22 187.521 17.2638 187.521 17.2638L187.687 17.2448L187.762 17.2044L187.853 17.2034C187.969 17.1533 188.086 17.1061 188.208 17.0603C188.179 17.0623 188.142 17.0842 188.054 17.109C187.93 17.1402 188.104 17.054 187.919 17.0355C187.889 17.0253 187.984 16.982 188.098 16.9459C188.208 16.9153 188.163 16.9274 188.364 16.8943C188.562 16.8476 188.562 16.9109 188.562 16.9109C188.562 16.9109 188.584 16.9109 188.6 16.9153C189.283 16.6753 190.016 16.4694 190.8 16.3107C190.809 16.3068 190.822 16.3044 190.822 16.3044C190.822 16.3044 190.853 16.2961 190.89 16.2815C189.356 16.519 187.939 16.8778 186.729 17.3334C186.742 17.3354 186.747 17.3373 186.761 17.3397C186.82 17.3573 186.88 17.3509 186.88 17.3509Z" fill="white"/>
<path d="M194.825 16.1556C194.825 16.1556 194.572 16.3031 194.54 16.324C194.513 16.344 194.453 16.5061 194.453 16.544C194.453 16.5859 194.415 16.6769 194.415 16.6769C194.415 16.6769 194.186 16.7616 194.069 16.7908C193.956 16.8186 193.844 16.9091 193.733 16.9705C193.703 16.988 193.651 16.9977 193.589 17.0138C193.22 17.5074 192.918 18.1635 192.701 18.9307C193.078 18.9185 193.459 18.9059 193.844 18.8966L193.803 18.807L193.873 18.8192L193.911 18.7584L193.97 18.7705L194.038 18.7744L194.114 18.7866L194.293 18.8022C194.375 18.8114 194.368 18.7705 194.368 18.7705L194.385 18.6469L194.356 18.5534L194.283 18.478L194.139 18.402L194.15 18.3607L194.23 18.3509L194.269 18.3792L194.38 18.3607L194.359 18.2838L194.481 18.2706L194.559 18.2253L194.66 18.1616C194.66 18.1616 194.724 18.1319 194.759 18.072C194.797 18.0136 194.942 17.9961 194.942 17.9961L195.034 17.962L195.016 17.8909L194.985 17.8374L194.955 17.7892L195.086 17.7108L195.125 17.8135L195.087 17.9245L195.142 17.9343V17.6364L195.127 17.6125L195.003 17.6364C195.003 17.6364 194.894 17.6432 194.85 17.6364C194.8 17.63 194.785 17.5614 194.785 17.5614C194.785 17.5614 194.785 17.4684 194.774 17.4173C194.753 17.3672 194.801 17.3458 194.851 17.3146C194.906 17.283 194.927 17.2752 194.98 17.2479C195.035 17.2216 195.106 17.1398 195.122 17.1209C195.122 17.1209 195.133 17.1077 195.143 17.096V16.0247C195.087 16.0295 195.024 16.0344 194.964 16.0446L194.825 16.1556ZM194.049 17.925C194.031 17.925 194.01 17.945 194.01 17.945L194.038 18.0282L194.021 18.0642L193.937 18.0783L193.882 18.1037L193.813 18.1163L193.741 18.0866L193.733 18.0608L193.816 18.017L193.825 17.9742L193.78 17.9586L193.807 17.8861L193.877 17.8948L193.882 17.8442L193.937 17.8087L193.991 17.8442L194.042 17.8296L194.053 17.8715C194.052 17.8715 194.065 17.9172 194.049 17.925ZM194.549 18.1168L194.488 18.1426L194.554 18.1664L194.549 18.1937L194.372 18.2142L194.26 18.219L194.186 18.2312L194.07 18.2434L194.1 18.2185L194.138 18.1932C194.144 18.183 194.168 18.1626 194.168 18.1626H194.23L194.251 18.1329C194.251 18.1329 194.196 18.1265 194.186 18.1265H194.104L194.102 18.0842L194.16 18.0574V18.0267L194.138 18.0014L194.168 17.9781L194.225 17.9961L194.249 17.9401L194.211 17.9046L194.222 17.8569C194.222 17.8569 194.178 17.8831 194.159 17.8705C194.136 17.8627 194.111 17.8432 194.111 17.8432L194.144 17.815C194.144 17.815 194.127 17.7843 194.114 17.7829C194.103 17.7741 194.049 17.7829 194.049 17.7829L194.087 17.7279L194.041 17.7021L194.025 17.65L194.064 17.6252L194.09 17.6461L194.128 17.5692L194.167 17.5736H194.244L194.24 17.5901L194.175 17.6422L194.196 17.6461L194.26 17.65L194.334 17.6709L194.298 17.724C194.298 17.724 194.232 17.7507 194.222 17.7619C194.211 17.7697 194.215 17.7848 194.215 17.7848H194.283C194.283 17.7848 194.312 17.7829 194.326 17.8019C194.334 17.8247 194.321 17.835 194.352 17.8544C194.384 17.8739 194.384 17.9041 194.384 17.9041L194.427 17.9338C194.427 17.944 194.449 17.9781 194.449 17.9781L194.466 18.0102L194.453 18.035L194.487 18.0569L194.524 18.0282L194.562 18.0569L194.549 18.1168Z" fill="white"/>
<path d="M204.974 18.2638L205.029 18.2789L205.091 18.3256L205.156 18.3529L205.141 18.3879L205.153 18.4254L205.23 18.4692L205.218 18.497L205.186 18.5189L205.213 18.5641L205.163 18.5958L205.223 18.6737L205.189 18.7175C205.694 19.1444 206.09 19.6044 206.359 20.0921C207.205 20.355 207.826 20.6485 208.18 20.9649C207.89 19.8774 206.881 18.88 205.368 18.0667C205.324 18.0944 205.294 18.1202 205.294 18.1202V18.1621C205.294 18.1621 205.239 18.1324 205.212 18.1173C205.181 18.0939 205.063 18.1173 205.063 18.1173V18.1421L204.987 18.1036L204.953 18.1377L204.879 18.1324C204.879 18.1324 204.906 18.1874 204.919 18.2083C204.938 18.2307 204.974 18.2638 204.974 18.2638Z" fill="white"/>
<path d="M194.97 18.8603L194.821 18.8228L194.693 18.8452L194.699 18.887C194.85 18.887 194.996 18.8812 195.144 18.8812V18.7892L195.088 18.7502L194.97 18.8603Z" fill="white"/>
<path d="M191.731 24.2117C191.686 24.2243 191.633 24.2345 191.609 24.2462C191.564 24.2667 191.407 24.3519 191.382 24.3913C191.354 24.4317 191.407 24.5295 191.4 24.5553C191.382 24.586 191.364 24.6293 191.347 24.6522C191.334 24.6663 191.283 24.6911 191.283 24.6911C191.283 24.6911 191.307 24.6911 191.257 24.7388C191.213 24.7827 191.202 24.7758 191.198 24.8075C191.191 24.8401 191.118 24.9253 191.118 24.9253C191.118 24.9253 191.118 24.9593 191.09 24.9783C191.064 24.9988 191.063 25.046 191.021 25.0611C190.981 25.0771 190.936 25.0771 190.917 25.0733C190.917 25.0733 190.897 25.0713 190.873 25.0694C191.469 25.8482 192.26 26.4649 193.172 26.8378C193.321 26.7653 193.452 26.7653 193.588 26.7653C193.661 26.7653 193.742 26.7477 193.805 26.7336C193.244 26.1807 192.796 25.3103 192.507 24.2467C192.248 24.2389 191.989 24.2248 191.731 24.2117Z" fill="white"/>
<path d="M194.465 19.1116L194.494 19.2012L194.456 19.224L194.396 19.2883L194.335 19.3525H194.188L194.106 19.4085L194.038 19.3598L193.976 19.3078L193.923 19.3146L193.839 19.2907V19.2347L193.792 19.1739L193.83 19.0561C193.437 19.0634 193.044 19.0761 192.658 19.0912C192.458 19.8544 192.341 20.7165 192.341 21.6292C192.341 22.039 192.367 22.4377 192.408 22.8218C192.437 22.8583 192.474 22.9133 192.479 22.9473C192.481 22.9829 192.467 23.0369 192.443 23.0871C192.494 23.439 192.554 23.7763 192.639 24.0986C193.449 24.1292 194.292 24.1492 195.144 24.1492V22.0556L195.136 22.0527C195.114 22.0366 195.074 21.9212 194.996 21.8906C194.921 21.8614 194.713 21.9719 194.713 21.9719C194.713 21.9719 194.598 22.0269 194.518 22.0317C194.435 22.0366 194.407 22.0244 194.407 22.0244L194.225 22.0191C194.225 22.0191 194.119 22.0906 194.079 22.0906C194.037 22.0906 193.974 22.0444 193.949 22.0025C193.933 21.9563 193.726 21.8336 193.726 21.8336C193.726 21.8336 193.618 21.7523 193.633 21.7144C193.644 21.6764 193.52 21.5805 193.509 21.5513C193.509 21.5221 193.399 21.4929 193.366 21.4476C193.324 21.3975 193.332 21.3731 193.34 21.3176C193.351 21.2558 193.268 21.194 193.268 21.194L193.337 21.1117C193.337 21.1117 193.359 20.953 193.355 20.88C193.355 20.8065 193.321 20.8221 193.332 20.7759C193.346 20.7286 193.277 20.6955 193.268 20.5958C193.268 20.4901 193.346 20.423 193.346 20.423C193.346 20.423 193.404 20.2944 193.436 20.2633C193.461 20.2385 193.547 20.0686 193.572 20.0569C193.596 20.0433 193.762 20.0102 193.792 19.906C193.801 19.8739 193.809 19.8573 193.812 19.8491L193.799 19.7712L193.817 19.7205C193.842 19.6758 193.817 19.6986 193.838 19.6699C193.859 19.6422 193.924 19.6027 193.956 19.5989C193.982 19.5857 194.059 19.5073 194.059 19.5073L194.053 19.4523L194.11 19.4416L194.186 19.482L194.329 19.4859L194.427 19.4431L194.504 19.4153C194.504 19.4153 194.571 19.3749 194.621 19.3594C194.673 19.3482 194.774 19.4119 194.91 19.3681C195.04 19.3253 195.024 19.3564 195.024 19.3564L195.144 19.3754V19.0405C194.937 19.0405 194.733 19.0405 194.531 19.0439L194.465 19.1116Z" fill="white"/>
<path d="M190.833 25.281C190.822 25.3175 190.795 25.3599 190.761 25.3623C190.706 25.3662 190.621 25.3818 190.595 25.3808C190.567 25.3808 190.478 25.3745 190.478 25.3745C190.478 25.3745 190.489 25.445 190.489 25.4582C190.489 25.4806 190.522 25.5064 190.507 25.5278C190.489 25.5458 190.436 25.5604 190.436 25.5604L190.331 25.5244C190.331 25.5244 190.305 25.5346 190.305 25.5487C190.305 25.5697 190.34 25.6266 190.34 25.6266L190.409 25.6514L190.39 25.6933L190.339 25.7172L190.367 25.776L190.362 25.8315C190.362 25.8315 190.285 25.8554 190.278 25.8681C190.271 25.8851 190.286 25.9518 190.324 25.9693C190.367 25.9849 190.419 26.0048 190.419 26.0048L190.443 26.055L190.429 26.1056C190.429 26.1056 190.393 26.1426 190.393 26.1606C190.393 26.1718 190.387 26.1947 190.383 26.2127C191.123 26.5607 191.952 26.8338 192.836 27.0066C192.883 26.9876 192.938 26.9584 192.994 26.9316C192.145 26.5646 191.408 25.9975 190.833 25.281Z" fill="white"/>
<path d="M194.003 26.7102L194.444 26.7252L194.81 26.8942L195.143 26.9321V24.3036C194.298 24.2992 193.475 24.2865 192.677 24.2544C192.97 25.3292 193.437 26.1947 194.003 26.7102Z" fill="white"/>
<path d="M183.958 22.8785C183.777 22.4793 183.682 22.0582 183.682 21.6323C183.682 21.1718 183.793 20.7196 183.996 20.2952C183.075 20.5872 182.458 20.9187 182.217 21.2668C182.2 21.3885 182.187 21.5082 182.187 21.6323C182.187 21.7214 182.191 21.8115 182.204 21.9005C182.433 22.2549 183.045 22.584 183.958 22.8785Z" fill="white"/>
<path d="M195.779 23.9605C195.756 23.9425 195.763 23.8505 195.763 23.8208C195.765 23.794 195.768 23.6358 195.768 23.5852C195.768 23.5311 195.856 23.4425 195.856 23.4017C195.86 23.3574 195.86 23.3174 195.832 23.2542C195.803 23.1923 195.84 23.1763 195.809 23.1028C195.777 23.0239 195.455 22.5732 195.455 22.5732L195.393 22.5055C195.393 22.5055 195.446 22.4344 195.473 22.4018C195.504 22.3678 195.435 22.3351 195.435 22.3055C195.435 22.2772 195.461 22.2368 195.48 22.194C195.504 22.1453 195.432 22.0981 195.377 22.0562C195.35 22.0421 195.329 22.0431 195.314 22.0504V24.1488C195.514 24.1488 195.707 24.1488 195.906 24.1449C195.865 24.0685 195.799 23.9721 195.779 23.9605Z" fill="white"/>
<path d="M195.536 19.711L195.656 19.7519L195.699 19.8425L195.819 19.8717L195.946 19.9233L196.032 19.8527L196.04 19.7899L196.084 19.767L196.207 19.732L196.335 19.7948L196.444 19.8318C196.444 19.8318 196.51 19.8357 196.551 19.8469C196.591 19.8629 196.683 19.8678 196.706 19.8712C196.734 19.8731 196.767 19.8678 196.767 19.8678L196.844 19.842L196.942 19.8824L197.036 19.8809C197.036 19.8809 197.088 19.8522 197.097 19.8469L197.121 19.7802L197.146 19.6853L197.182 19.6346C197.192 19.6302 197.182 19.5772 197.182 19.5772L197.152 19.5305C197.152 19.5305 197.163 19.491 197.163 19.4857L197.158 19.437L197.121 19.455L197.067 19.4214L196.996 19.4886C196.996 19.4886 196.915 19.4935 196.901 19.4857C196.877 19.4764 196.875 19.455 196.855 19.435C196.84 19.4136 196.762 19.4166 196.762 19.4166L196.739 19.4633L196.666 19.4657L196.636 19.4219L196.545 19.4136L196.414 19.307V19.1995C196.414 19.1995 196.383 19.1649 196.383 19.1401C196.383 19.1196 196.363 19.0865 196.363 19.0865L196.298 19.0778L196.276 19.1006L196.206 19.1109L196.149 19.1021V19.1727L196.24 19.2793L196.197 19.3299V19.4131L196.162 19.4219L196.105 19.3752L196.031 19.3022L196.039 19.2691L195.952 19.2087L195.884 19.0865L195.889 19.0437H195.719C195.75 19.0588 195.818 19.1196 195.818 19.1196V19.1474L195.769 19.1196C195.769 19.1196 195.735 19.1006 195.719 19.0963C195.7 19.088 195.691 19.1196 195.691 19.1196C195.682 19.1298 195.691 19.1547 195.691 19.1547C195.703 19.1576 195.741 19.1795 195.741 19.1795V19.2106L195.707 19.2209L195.704 19.2579L195.67 19.2929H195.641L195.635 19.2739L195.666 19.2472L195.655 19.2408L195.66 19.2326L195.63 19.1357L195.495 19.0486L195.478 19.0388H195.314V19.4769L195.327 19.5071L195.314 19.5183V19.6152C195.361 19.6522 195.431 19.7018 195.445 19.7072C195.46 19.7111 195.536 19.711 195.536 19.711ZM197.017 19.5241L197.053 19.5178L197.022 19.5475L197.017 19.5655L196.982 19.6074L196.941 19.603L196.893 19.5665L197.017 19.5241ZM196.241 19.4993L196.392 19.5246L196.419 19.5441H196.441V19.564H196.339L196.241 19.5246V19.4993Z" fill="white"/>
<path d="M195.631 26.9302C195.735 26.8542 196.223 26.7058 196.223 26.7058C196.223 26.7058 196.299 26.7179 196.402 26.7379C196.981 26.2214 197.459 25.3477 197.755 24.2573C197.683 24.2602 197.612 24.2612 197.538 24.2637C197.534 24.2987 197.55 24.2987 197.526 24.3289C197.5 24.3649 197.474 24.3586 197.43 24.3737C197.387 24.3883 197.364 24.4754 197.364 24.4754C197.364 24.4754 197.389 24.5869 197.382 24.619C197.376 24.6521 197.359 24.691 197.305 24.7412C197.251 24.7894 197.103 24.9442 197.029 25.025C196.95 25.1038 196.847 25.1389 196.699 25.1452C196.552 25.1525 196.423 25.2552 196.423 25.2552L196.328 25.0985C196.328 25.0985 196.324 25.0113 196.317 24.9826C196.317 24.9466 196.198 24.8332 196.175 24.7606C196.154 24.6915 196.027 24.5591 196.022 24.5382C196.011 24.5226 195.991 24.3951 195.993 24.3552C195.993 24.3391 195.982 24.3216 195.97 24.2997C195.752 24.2997 195.534 24.2997 195.314 24.3026V26.9535C195.385 26.9652 195.55 26.9881 195.631 26.9302ZM195.915 26.4833L195.977 26.5963L195.716 26.7058L195.652 26.5583L195.915 26.4833Z" fill="white"/>
<path d="M195.53 18.7681C195.53 18.7681 195.424 18.6766 195.41 18.6484C195.396 18.6206 195.355 18.6566 195.34 18.6732C195.324 18.6834 195.327 18.7345 195.327 18.7345C195.332 18.753 195.386 18.7851 195.426 18.8124C195.469 18.845 195.451 18.8309 195.472 18.8562C195.483 18.8645 195.493 18.8767 195.495 18.8869H195.701C195.661 18.8601 195.534 18.7754 195.534 18.7754" fill="white"/>
<path d="M192.165 23.4114C192.152 23.4168 192.136 23.4815 192.136 23.4917C192.136 23.4917 192.125 23.6504 192.125 23.6709C192.125 23.6928 192.042 23.9853 192.004 24.0676C192.154 24.0749 192.309 24.0807 192.466 24.0885C192.4 23.8252 192.342 23.5506 192.3 23.2688C192.267 23.2985 192.242 23.3204 192.233 23.3355C192.227 23.3569 192.186 23.4061 192.165 23.4114Z" fill="white"/>
<path d="M197.982 16.5877L198.05 16.6344L198.031 16.6412C198.284 16.7941 198.53 16.9635 198.758 17.1528L198.764 17.1319C198.764 17.1319 198.783 16.9435 198.779 16.8768C198.775 16.8082 198.87 16.8306 198.99 16.8082C199.062 16.7946 199.203 16.7576 199.344 16.7381C198.594 16.4572 197.774 16.2504 196.901 16.134C197.265 16.2504 197.616 16.4057 197.941 16.5882H197.982V16.5877Z" fill="white"/>
<path d="M195.769 16.8466L196.213 16.8568C196.213 16.8568 196.241 16.9191 196.292 16.923C196.348 16.923 196.834 17.0836 196.834 17.0836L196.91 17.1055C196.459 16.462 195.911 16.0653 195.314 16.0273V16.9454C195.347 16.9259 195.365 16.9269 195.435 16.9191C195.534 16.905 195.769 16.8466 195.769 16.8466Z" fill="white"/>
<path d="M195.538 17.9713L195.678 17.9674L195.792 17.9489L195.809 17.8876L195.819 17.8146L195.874 17.7489C195.874 17.7489 195.921 17.7518 195.905 17.7445C195.889 17.7347 195.903 17.6481 195.903 17.6481H196.234C196.274 17.6481 196.393 17.5683 196.445 17.561C196.501 17.5473 196.419 17.4665 196.419 17.4665L196.247 17.5245L195.941 17.5785L195.808 17.5245L195.792 17.4437C195.792 17.4437 195.732 17.3624 195.81 17.3317C195.894 17.3005 195.941 17.2056 195.941 17.2056L195.801 17.1467L195.704 17.1842L195.752 17.247L195.67 17.2957L195.538 17.3857L195.534 17.5021L195.686 17.5916L195.564 17.7124L195.408 17.8428L195.314 17.8306V17.9742L195.377 17.9971L195.538 17.9713Z" fill="white"/>
<path d="M197.127 17.1471L197.292 17.1218C197.292 17.1218 197.603 17.1145 197.788 17.0989C197.978 17.0809 197.893 17.0074 197.893 17.0074L198.245 17.0239L198.241 16.9577C198.096 16.8619 197.954 16.7747 197.803 16.6905L197.788 16.6959L197.617 16.8619L197.699 16.9577L197.596 16.9792L197.389 16.8258L197.599 16.6175L197.656 16.6126C197.16 16.3585 196.62 16.1765 196.05 16.0874C196.444 16.3035 196.811 16.6681 197.127 17.1471Z" fill="white"/>
<path d="M192.247 17.3225C192.247 17.3225 192.247 17.174 192.247 17.1273C192.247 17.084 192.312 17.0129 192.312 17.0129C192.312 17.0129 192.349 16.9107 192.38 16.9005C192.403 16.8941 192.366 16.863 192.346 16.8445C191.913 17.1171 191.522 17.4447 191.185 17.8205C191.177 17.8497 191.173 17.893 191.149 17.9081C191.115 17.9363 191.249 17.9767 191.266 17.9767C191.285 17.9806 191.333 18.0259 191.333 18.0259L191.196 18.0687L191.228 18.0731L191.333 18.0692L191.419 18.1042L191.451 18.131L191.423 18.1909L191.392 18.2157L191.223 18.2775C191.223 18.2775 191.08 18.3486 191.063 18.3506C191.042 18.3549 190.972 18.3817 190.972 18.3817L190.733 18.3773C190.666 18.4795 190.595 18.5896 190.529 18.6981L190.694 18.6908L190.822 18.6343L190.865 18.6674L190.741 18.7541L190.554 18.777L190.447 18.8427C190.406 18.9157 190.368 18.9911 190.324 19.07C191.029 19.015 191.766 18.9683 192.529 18.9415C192.736 18.1977 193.028 17.5508 193.376 17.045C193.297 17.0553 193.232 17.0606 193.232 17.0606L192.861 17.2699L192.644 17.4836L192.532 17.4486L192.351 17.4237L192.247 17.3225ZM191.438 18.5321C191.438 18.5321 191.426 18.5827 191.402 18.5964C191.369 18.609 191.222 18.609 191.222 18.609L191.177 18.5774L190.984 18.5803L190.977 18.5263L191.123 18.443L191.222 18.3223L191.343 18.2581L191.363 18.3637L191.278 18.4036L191.392 18.389C191.392 18.389 191.451 18.4036 191.451 18.4226C191.45 18.4333 191.438 18.5321 191.438 18.5321Z" fill="white"/>
<path d="M206.072 23.6143L206.076 23.6264C206.098 23.6722 206.186 23.7788 206.223 23.8289C206.261 23.8757 206.298 23.843 206.266 23.936C206.241 24.03 206.282 24.0499 206.168 24.1293C206.046 24.2159 205.816 24.4754 205.736 24.5708C205.659 24.6662 205.644 24.7046 205.578 24.7139C205.513 24.7246 205.39 24.7616 205.345 24.7742C205.295 24.7825 205.223 24.7879 205.163 24.7908C205.115 24.7976 205.083 24.8219 205.013 24.802C204.954 24.7888 204.935 24.782 204.923 24.7553C203.605 25.7716 201.661 26.567 199.368 27.0095C201.28 26.7291 203.034 26.2569 204.495 25.612C206.62 24.6754 207.907 23.4814 208.205 22.2007C207.863 22.5161 207.244 22.816 206.407 23.0793C206.316 23.2609 206.201 23.4381 206.072 23.6143ZM205.324 25.0249C205.31 25.0313 205.141 25.1705 205.141 25.1705L205.054 25.1904L205.115 24.9767L205.186 24.9826L205.337 24.9553C205.337 24.9553 205.35 25.0176 205.324 25.0249Z" fill="white"/>
<path d="M206.46 20.2952C206.671 20.7211 206.777 21.1709 206.777 21.6338C206.777 22.0582 206.682 22.4788 206.504 22.8785C207.41 22.584 208.029 22.2549 208.251 21.9005C208.265 21.8124 208.271 21.7219 208.271 21.6338C208.271 21.5082 208.261 21.3885 208.24 21.2668C208.003 20.9192 207.379 20.5882 206.46 20.2952Z" fill="white"/>
<path d="M200.119 24.1221C199.42 24.1746 198.684 24.2199 197.928 24.2516C197.634 25.3356 197.163 26.2157 196.591 26.7682C196.805 26.8017 197.059 26.8451 197.171 26.864C198.46 26.3612 199.511 25.374 200.119 24.1221Z" fill="white"/>
<path d="M190.243 19.2364C189.916 19.9369 189.729 20.7162 189.718 21.5354H189.736C189.766 21.5252 189.878 21.5062 189.878 21.5062C189.878 21.5062 189.923 21.5291 189.988 21.551C190.057 21.5695 190.087 21.5967 190.087 21.5967V21.6328L190.159 21.6483C190.159 21.6483 190.173 21.6771 190.227 21.697C190.277 21.7121 190.322 21.7618 190.322 21.7749C190.322 21.7861 190.336 21.8036 190.336 21.8036C190.336 21.8036 190.354 21.7846 190.397 21.8236C190.435 21.8586 190.437 21.8908 190.491 21.8815C190.534 21.8757 190.604 21.8494 190.667 21.8684C190.73 21.8854 190.863 21.9365 190.89 21.955C190.917 21.9706 190.972 22.0319 190.976 22.0509C190.981 22.0684 191.018 22.1215 191.018 22.1215L191.072 22.2242C191.072 22.2242 191.072 22.269 191.067 22.288C191.063 22.3055 191.099 22.3449 191.118 22.3512C191.142 22.3576 191.215 22.3707 191.215 22.3707L191.266 22.4272C191.266 22.4272 191.42 22.4165 191.433 22.4306C191.452 22.4486 191.613 22.5055 191.613 22.5216C191.613 22.5352 191.663 22.5498 191.69 22.5455C191.711 22.5416 191.835 22.6058 191.861 22.6019C191.885 22.6 191.924 22.581 191.976 22.5951C192.027 22.6136 192.054 22.618 192.097 22.6555C192.126 22.674 192.182 22.7115 192.227 22.7377C192.193 22.3766 192.173 22.0115 192.173 21.6333C192.173 20.722 192.287 19.8663 192.483 19.0996C191.711 19.1327 190.957 19.1809 190.243 19.2364Z" fill="white"/>
<path d="M202.99 23.8088C202.162 23.9286 201.266 24.0298 200.316 24.1033C199.727 25.3577 198.707 26.3634 197.453 26.9173C197.549 26.9334 197.662 26.9524 197.773 26.9733C200.128 26.4768 202.033 25.31 202.99 23.8088Z" fill="white"/>
<path d="M204.905 24.5297C204.905 24.5297 204.828 24.5589 204.801 24.5755C204.767 24.5857 204.707 24.6076 204.698 24.5896C204.686 24.5765 204.698 24.4879 204.626 24.4528C204.553 24.4212 204.388 24.4319 204.366 24.4319C204.346 24.4319 204.216 24.4596 204.136 24.4737C204.053 24.4898 204.063 24.464 203.972 24.5297C203.879 24.5984 203.916 24.6037 203.843 24.6193C203.768 24.6237 203.737 24.6027 203.668 24.6212C203.595 24.6378 203.574 24.6524 203.499 24.6699C203.418 24.6933 203.33 24.7415 203.301 24.7084C203.276 24.6792 203.225 24.6397 203.225 24.6397C203.225 24.6397 203.385 24.5375 203.38 24.4767C203.38 24.4197 203.378 24.1914 203.37 24.1384C203.361 24.0804 203.348 24.0984 203.355 24.0347C203.366 23.9699 203.434 23.8059 203.455 23.7791C203.467 23.767 203.502 23.7441 203.546 23.7241C203.434 23.7421 203.317 23.7621 203.203 23.7762C202.294 25.2901 200.451 26.4895 198.16 27.0463L198.164 27.0483C200.997 26.6749 203.4 25.7768 204.905 24.5769V24.5297" fill="white"/>
<path d="M200.909 21.8459L200.876 21.8259L200.86 21.7948C200.835 22.5536 200.673 23.2765 200.392 23.9361C201.357 23.8518 202.268 23.7433 203.101 23.6216C203.241 23.3714 203.361 23.1066 203.447 22.8447L203.308 22.8092L203.115 22.8141L202.965 22.7693L202.969 22.744L202.892 22.7143L202.89 22.6724C202.89 22.6724 202.969 22.6651 202.995 22.6622C203.017 22.6622 203.048 22.6812 203.048 22.6812C203.048 22.6812 203.134 22.7182 203.166 22.7182C203.193 22.7143 203.233 22.7279 203.233 22.7279L203.276 22.6875L203.419 22.7289L203.478 22.7469C203.51 22.651 203.534 22.5531 203.555 22.4577L203.453 22.4504L203.389 22.4689L203.349 22.4441L203.234 22.4339L203.211 22.32L203.142 22.2543L203.131 22.1657L203.181 22.0912L203.29 22.1238L203.345 22.0357L203.467 21.9904L203.546 21.8955L203.631 21.8668L203.638 21.8434C203.645 21.7719 203.653 21.7003 203.653 21.6312C203.653 21.2627 203.598 20.9088 203.499 20.5608C203.444 20.5963 203.389 20.6202 203.358 20.6265C203.294 20.6421 203.12 20.6956 203.12 20.6956L203.048 20.7205V20.7901L203 20.791L202.963 20.7015C202.963 20.7015 202.888 20.6747 202.804 20.7205C202.721 20.7682 202.702 20.8962 202.702 20.8962L202.774 20.9609C202.774 20.9609 202.807 20.996 202.849 21.0213C202.889 21.0461 202.991 21.1284 202.991 21.1284C202.991 21.1284 203.06 21.2204 203.056 21.2622C203.049 21.3056 203.056 21.4287 203.056 21.4287L202.946 21.4886L202.804 21.619L202.77 21.6176L202.758 21.5489L202.78 21.5076L202.688 21.4925C202.688 21.4925 202.611 21.4555 202.608 21.4355C202.606 21.4165 202.504 21.3416 202.504 21.3416L202.459 21.3396L202.409 21.3294L202.404 21.2754L202.352 21.2773L202.358 21.3761L202.317 21.5168L202.328 21.584L202.358 21.5786L202.394 21.6181C202.394 21.6181 202.454 21.7062 202.457 21.7174L202.503 21.748C202.503 21.748 202.542 21.7612 202.583 21.7884C202.621 21.8206 202.664 21.8809 202.684 21.9014C202.705 21.914 202.708 22.0474 202.713 22.0664C202.722 22.0844 202.768 22.1355 202.768 22.1355L202.732 22.1496L202.53 22.0367C202.53 22.0367 202.432 21.8717 202.422 21.8259C202.417 21.784 202.288 21.6492 202.259 21.6327C202.222 21.6185 202.269 21.4638 202.261 21.3951C202.259 21.3236 202.161 21.1999 202.159 21.1551C202.155 21.1084 202.057 20.9974 202.057 20.9974C202.057 20.9974 202.064 21.0164 202.05 21.0495C202.039 21.0836 201.962 21.1181 201.962 21.1181L201.875 21.0972C201.875 21.0972 201.885 20.9526 201.864 20.9439C201.838 20.9346 201.788 20.8275 201.722 20.8047C201.662 20.7808 201.629 20.6869 201.629 20.6625C201.623 20.6323 201.533 20.61 201.533 20.61L201.505 20.644L201.412 20.665H201.348L201.23 20.7029L201.24 20.7579C201.24 20.7579 201.23 20.791 201.197 20.8056C201.165 20.8236 201.062 20.9234 201.062 20.9234C201.005 20.9624 200.954 21.0208 200.944 21.0446C200.94 21.0675 200.855 21.1128 200.855 21.1128L200.839 21.1206C200.855 21.2651 200.861 21.4146 200.861 21.5631C200.872 21.5704 200.982 21.6833 200.99 21.6955C200.996 21.7042 201 21.7665 201 21.7665L200.99 21.8055L200.909 21.8459ZM203.039 20.9429C203.039 20.9429 202.994 20.9317 202.963 20.9244C202.938 20.9186 202.945 20.8743 202.945 20.8743L202.986 20.8139H203.069L203.109 20.8227L203.086 20.9122L203.039 20.9429ZM202.073 21.8507L202.126 21.8756L202.231 21.8804L202.269 21.9422L202.393 22.0192L202.491 22.079L202.591 22.1593L202.674 22.2041L202.731 22.2314L202.708 22.2893L202.74 22.3049L202.805 22.3682L202.898 22.4149L202.884 22.6296L202.804 22.6383C202.804 22.6383 202.668 22.5147 202.617 22.5015C202.568 22.4826 202.53 22.4349 202.525 22.4057C202.518 22.3808 202.453 22.3258 202.453 22.3258L202.373 22.2572C202.373 22.2572 202.339 22.1423 202.332 22.1253C202.331 22.1175 202.25 22.0688 202.25 22.0688L202.163 22.0157C202.163 22.0157 202.035 21.8746 202.025 21.8595C202.023 21.8459 202.073 21.8507 202.073 21.8507Z" fill="white"/>
<path d="M204.888 19.6194L204.919 19.7212C205.361 19.8166 205.764 19.9163 206.132 20.0254C205.702 19.3142 204.995 18.6629 204.072 18.106L204.045 18.0983L203.992 18.1124C203.992 18.1124 203.973 18.1172 203.916 18.1182C203.86 18.1211 203.768 18.0983 203.684 18.0939C203.598 18.0875 203.598 18.1056 203.598 18.1056L203.52 18.2847L203.449 18.3801L203.477 18.3884L203.583 18.4069L203.627 18.4609L203.709 18.4619L203.719 18.4278C203.719 18.4278 203.871 18.4857 203.903 18.4989C203.938 18.5135 204.003 18.5461 204.003 18.5461C204.003 18.5461 204.035 18.5821 204.038 18.5967C204.045 18.6094 204.091 18.6843 204.113 18.7082C204.137 18.7311 204.21 18.862 204.21 18.862L204.198 18.9063C204.198 18.9063 204.211 18.9642 204.217 18.9774C204.222 18.9871 204.192 19.0314 204.176 19.0635C204.167 19.0995 204.137 19.1662 204.137 19.1662L204.052 19.2319L203.978 19.2183L203.936 19.1877C203.936 19.1877 203.911 19.2057 203.911 19.2285C203.911 19.2573 203.83 19.2913 203.83 19.2913L203.886 19.3546L203.816 19.4116L203.776 19.415L203.811 19.4739C203.811 19.4739 203.9 19.5089 203.941 19.5362C204.176 19.5756 204.402 19.6155 204.614 19.6623L204.698 19.6399L204.73 19.5065L204.673 19.4398L204.665 19.3609L204.724 19.3702L204.766 19.4121L204.878 19.4875L204.837 19.5732L204.888 19.6194ZM204.449 18.9496L204.363 18.8455L204.29 18.7788L204.197 18.677L204.053 18.5612L204.034 18.5071L204.237 18.641L204.429 18.7637L204.444 18.8615L204.537 18.9754L204.495 19.0012L204.449 18.9496ZM204.834 19.2276L204.801 19.3108L204.701 19.2753L204.651 19.285L204.667 19.3269L204.631 19.3356L204.541 19.2699C204.541 19.2699 204.537 19.2212 204.578 19.2178C204.622 19.2178 204.587 19.1769 204.587 19.1769L204.511 19.0874V19.063L204.701 19.1555L204.864 19.1803L204.896 19.2344L204.834 19.2276Z" fill="white"/>
<path d="M198.211 18.6957L198.167 18.6792L198.131 18.6884L198.052 18.6753L197.989 18.6865L197.932 18.7172L197.867 18.7668L197.857 18.7726C197.872 18.8286 197.893 18.8822 197.906 18.9396C197.978 18.942 198.05 18.944 198.118 18.9498L198.052 18.8982L198.05 18.8535L198.097 18.8812L198.14 18.8622L198.101 18.8413L198.132 18.8092L198.261 18.8238L198.271 18.8023L198.216 18.7765L198.211 18.6957Z" fill="white"/>
<path d="M203.66 19.4859V19.482C203.668 19.4523 203.621 19.4221 203.621 19.4221C203.621 19.4221 203.526 19.4133 203.487 19.4133C203.466 19.4163 203.433 19.4323 203.409 19.443C203.494 19.4581 203.58 19.4683 203.66 19.4859Z" fill="white"/>
<path d="M188.074 17.3131L188.28 17.301L188.422 17.2839L188.509 17.2951L188.474 17.3331C188.474 17.3443 188.485 17.3789 188.497 17.3711C188.515 17.3672 188.572 17.319 188.572 17.319V17.2752L188.78 17.2353L188.941 17.225H188.96C188.96 17.2138 188.96 17.2022 188.952 17.1914C188.952 17.1535 188.821 17.1939 188.821 17.1939C188.821 17.1939 188.425 17.2479 188.395 17.2382C188.369 17.2275 188.311 17.2138 188.325 17.1851C188.35 17.154 188.453 17.1403 188.479 17.136C188.479 17.136 188.475 17.1316 188.46 17.1252C188.356 17.1652 188.257 17.2026 188.157 17.2401H188.216L188.208 17.2761L188.074 17.3131Z" fill="white"/>
<path d="M203.284 19.5907L203.262 19.5884L203.267 19.6013L203.284 19.5907Z" fill="white"/>
<path d="M200.168 16.7797C200.32 16.8036 200.479 16.8571 200.36 16.8824C200.243 16.9053 200.502 16.9939 200.502 16.9939L200.893 17.0708C200.893 17.0708 201.203 17.0343 201.32 17.0445C201.44 17.0547 201.676 17.1691 201.676 17.1691L202.061 17.2392L202.26 17.2514L202.276 17.2324C201.075 16.7588 199.668 16.4103 198.14 16.2068C198.729 16.3543 199.288 16.5349 199.81 16.7593C199.938 16.7627 200.072 16.7627 200.168 16.7797Z" fill="white"/>
<path d="M187.625 20.0817C187.585 20.0729 187.479 20.0695 187.479 20.0695C187.479 20.0695 187.354 20.1002 187.251 20.1128C187.191 20.1162 187.134 20.161 187.084 20.2082C187.019 20.3728 186.971 20.5407 186.923 20.7111C186.954 20.8128 187.074 20.9038 187.215 20.8916C187.382 20.8751 187.512 20.8128 187.512 20.7909C187.512 20.7651 187.601 20.695 187.601 20.695L187.78 20.677L187.864 20.6736C187.864 20.6736 187.887 20.7052 187.864 20.7524C187.834 20.8016 187.736 20.8916 187.736 20.8916C187.736 20.8916 187.681 20.9447 187.671 20.9832C187.655 21.0226 187.601 21.0562 187.581 21.0917C187.555 21.1204 187.722 21.1126 187.722 21.1126L187.969 21.0956C187.969 21.0956 188.11 21.1185 188.11 21.1423C188.11 21.1657 188.046 21.357 188.046 21.4266C188.046 21.4996 188.14 21.5692 188.205 21.5975C188.205 21.5975 188.233 21.6349 188.302 21.6111C188.365 21.5882 188.474 21.577 188.474 21.577L188.586 21.6087L188.653 21.6919L188.676 21.6272L188.745 21.5911C188.745 21.5911 188.784 21.5629 188.784 21.5507C188.784 21.5361 188.75 21.506 188.807 21.4772C188.864 21.4514 188.799 21.4553 188.864 21.4514C188.924 21.449 188.933 21.4407 189.019 21.4105C189.102 21.3745 189.123 21.3692 189.123 21.3692L189.146 21.4052L189.101 21.4597V21.4996C189.101 21.5176 189.072 21.5595 189.093 21.5673C189.107 21.5731 189.174 21.5629 189.174 21.5629L189.138 21.4865L189.146 21.4597L189.329 21.4101L189.431 21.4509C189.431 21.4509 189.419 21.486 189.441 21.4899C189.458 21.4938 189.451 21.4938 189.553 21.4938C189.556 21.3 189.567 21.1087 189.59 20.9194H189.585L189.59 20.8843H189.598C189.67 20.3119 189.823 19.7653 190.052 19.2556C189.811 19.2756 189.575 19.2985 189.339 19.3243C189.339 19.3243 189.326 19.35 189.314 19.3569C189.294 19.369 189.19 19.463 189.19 19.463L189.193 19.5355C189.193 19.5355 188.962 19.6957 188.932 19.7044C188.894 19.7122 188.767 19.7682 188.745 19.7828C188.721 19.7974 188.62 19.8792 188.589 19.9059C188.557 19.9429 188.547 20.0851 188.538 20.1128C188.534 20.1362 188.575 20.2146 188.575 20.2311C188.575 20.2477 188.601 20.271 188.575 20.3036C188.546 20.3392 188.479 20.3825 188.479 20.3825L188.433 20.3669C188.433 20.3669 188.406 20.271 188.394 20.2477C188.385 20.2292 188.362 20.1922 188.362 20.1805C188.362 20.1668 188.369 20.1065 188.369 20.1065L188.35 20.0637C188.35 20.0637 188.295 20.016 188.257 20.0388C188.216 20.0675 188.17 20.0695 188.17 20.0695C188.17 20.0695 188.086 19.9955 188.012 19.9989C187.932 20.0028 187.778 19.9429 187.778 20.0057C187.778 20.0695 187.897 20.0598 187.778 20.0695C187.661 20.0817 187.661 20.0851 187.625 20.0817ZM188.77 20.9447H188.654L188.621 20.9028L188.638 20.8839L188.777 20.9189L188.77 20.9447ZM189.105 20.8128L189.08 20.7948L189.1 20.7651L189.216 20.7909L189.321 20.77C189.321 20.77 189.387 20.8172 189.404 20.823C189.422 20.8332 189.498 20.8532 189.498 20.8532L189.512 20.8916L189.404 20.877L189.321 20.9033L189.293 20.8921L189.21 20.9647L189.17 20.9194H189.07H188.951V20.8916L189.051 20.877L189.116 20.8444L189.105 20.8128ZM188.27 20.5363L188.427 20.5451L188.508 20.5514L188.578 20.5826L188.694 20.6283L188.794 20.6677L188.863 20.6974L188.97 20.7145L188.976 20.7485L188.931 20.7714L188.839 20.7777L188.698 20.7841L188.651 20.7821L188.735 20.7451L188.726 20.731L188.688 20.7232L188.618 20.6974L188.599 20.64L188.547 20.6473L188.435 20.6225L188.354 20.6059L188.302 20.5894L188.22 20.6254L188.113 20.6517L188.085 20.6405L188.27 20.5363Z" fill="white"/>
<path d="M204.304 18.0712C204.444 18.1568 204.578 18.2469 204.706 18.3428C204.69 18.3272 204.68 18.3155 204.68 18.3155L204.67 18.2644C204.67 18.2644 204.724 18.2722 204.74 18.2376C204.752 18.2089 204.737 18.1831 204.737 18.1549C204.737 18.1354 204.735 18.0979 204.735 18.0979L204.782 18.0712L204.772 18.0376L204.706 17.9908L204.696 17.9524L204.63 17.9665L204.658 17.9952L204.638 18.0113L204.586 18.0619C204.586 18.0619 204.531 18.0312 204.508 18.0147C204.494 17.9908 204.472 17.9855 204.365 17.984C204.259 17.9792 204.309 18.0527 204.309 18.0527L204.306 18.0648" fill="white"/>
<path d="M199.938 20.5617C199.938 20.5617 199.865 20.5807 199.851 20.5617C199.839 20.5442 199.729 20.5003 199.729 20.5003L199.616 20.3738L199.534 20.3748C199.534 20.3748 199.301 20.4054 199.272 20.3947C199.235 20.3845 199.089 20.3592 198.997 20.3446C198.903 20.331 198.916 20.3027 198.903 20.2798C198.894 20.256 198.88 20.2282 198.83 20.2282C198.775 20.2282 198.736 20.2711 198.709 20.2701C198.685 20.2623 198.567 20.218 198.545 20.2136C198.518 20.2073 198.444 20.1703 198.42 20.1431C198.402 20.1148 198.33 19.9819 198.291 19.9819C198.249 19.9819 198.186 19.978 198.162 19.9922C198.141 20.0102 198.156 20.0438 198.186 20.0842C198.216 20.1221 198.272 20.1908 198.302 20.2239C198.331 20.2526 198.354 20.2725 198.354 20.3095C198.354 20.3441 198.392 20.3733 198.392 20.3733L198.426 20.3855L198.416 20.3246L198.446 20.3022L198.472 20.3378L198.496 20.4414C198.496 20.4414 198.531 20.4634 198.545 20.4624C198.558 20.459 198.594 20.459 198.622 20.4624C198.656 20.4624 198.69 20.459 198.709 20.4366C198.728 20.4069 198.839 20.3003 198.839 20.3003C198.839 20.3003 198.839 20.3397 198.852 20.3957C198.86 20.4517 198.969 20.4853 198.994 20.4945C199.017 20.5047 199.03 20.4994 199.05 20.5115C199.076 20.5218 199.092 20.5583 199.116 20.5763C199.128 20.6021 199.151 20.6021 199.151 20.6021C199.151 20.6021 199.136 20.6659 199.072 20.7379C199.009 20.8129 199.024 20.863 199.024 20.863C199.024 20.863 198.978 20.8752 198.962 20.8956C198.953 20.9146 198.969 20.9331 198.926 20.9418C198.885 20.9492 198.87 20.9876 198.831 20.9978C198.793 21.0144 198.759 21.0188 198.682 21.0455C198.602 21.0752 198.641 21.1312 198.641 21.1312C198.545 21.1516 198.383 21.2227 198.257 21.2743C198.259 21.3439 198.259 21.4101 198.259 21.4768C198.28 21.469 198.301 21.4656 198.319 21.469C198.358 21.4817 198.352 21.4612 198.391 21.4578C198.436 21.4559 198.446 21.4578 198.446 21.4578L198.555 21.4033L198.602 21.3989C198.602 21.3989 198.62 21.5158 198.58 21.5829C198.545 21.6482 198.537 21.8195 198.485 21.8984C198.432 21.9738 198.353 22.0561 198.293 22.1193C198.282 22.1296 198.266 22.1442 198.249 22.1622C198.216 22.8461 198.119 23.494 197.971 24.0883C198.739 24.0552 199.485 24.0105 200.2 23.9511C200.513 23.2526 200.689 22.4791 200.693 21.6671L200.661 21.6832C200.661 21.6832 200.589 21.6253 200.56 21.5674C200.53 21.5114 200.487 21.4695 200.409 21.3279C200.326 21.1833 200.285 21.1239 200.259 21.0626C200.235 20.9969 200.163 20.7934 200.163 20.7934C200.163 20.7934 200.179 20.7486 200.159 20.715C200.147 20.6746 200.151 20.6697 200.151 20.6697L200.123 20.641L200.105 20.6951C200.105 20.6951 200.028 20.7379 199.998 20.7311C199.965 20.7209 199.866 20.6157 199.866 20.6157C199.866 20.6157 199.893 20.6074 199.916 20.5928C199.938 20.5807 199.938 20.5617 199.938 20.5617Z" fill="white"/>
<path d="M203.278 19.3308L203.242 19.417C203.278 19.4228 203.315 19.4311 203.351 19.435L203.338 19.414L203.349 19.3483L203.278 19.3308Z" fill="white"/>
<path d="M203.107 17.2885C203.344 17.307 203.246 17.3007 203.523 17.38C203.63 17.4058 203.875 17.4487 204.136 17.4905C202.781 16.94 201.16 16.5121 199.364 16.2478C200.591 16.4853 201.721 16.8251 202.713 17.2481C202.821 17.2637 202.97 17.2768 203.107 17.2885Z" fill="white"/>
<path d="M197.796 24.0983C197.935 23.5506 198.029 22.9573 198.069 22.325C198.03 22.359 197.996 22.3989 197.966 22.4296C197.858 22.5484 197.753 22.856 197.753 22.856L197.807 22.9174C197.807 22.9174 197.836 22.9806 197.83 23.0152C197.822 23.0463 197.832 23.1466 197.832 23.1466C197.832 23.1466 197.89 23.1924 197.898 23.2318C197.911 23.2727 197.894 23.2727 197.907 23.3608C197.918 23.4504 197.912 23.4723 197.912 23.556C197.918 23.6378 197.732 23.7638 197.655 23.7858C197.584 23.8096 197.595 23.851 197.56 23.8885C197.522 23.9216 197.506 23.9805 197.506 23.9805C197.506 23.9805 197.534 24.0223 197.551 24.1041C197.627 24.1022 197.713 24.1012 197.796 24.0983Z" fill="white"/>
<path d="M190.298 16.6404C190.353 16.5986 190.233 16.6205 190.233 16.6205L190.024 16.6925L189.988 16.6545C189.617 16.7461 189.257 16.8556 188.907 16.97C188.933 16.9782 188.951 16.9851 188.951 16.9851C188.951 16.9851 189.03 16.9403 189.076 16.9252C189.122 16.9096 189.225 16.9096 189.225 16.9096L189.116 17.007L189.186 17.0464L189.109 17.2304L189.186 17.2323C189.186 17.2323 189.313 17.2114 189.321 17.2304C189.332 17.2479 189.313 17.1803 189.313 17.1803L189.478 17.1559L189.564 17.1705L189.659 17.1019L189.617 17.0853L189.547 17.0605L189.674 16.9899C189.674 16.9899 189.774 16.9043 189.787 16.9086C189.804 16.9086 189.897 16.8176 189.897 16.8176C189.897 16.8176 190.027 16.7918 190.045 16.7962C190.062 16.7962 190.062 16.8356 190.062 16.8356L189.902 16.9242L189.844 17.004L189.795 17.0454L189.864 17.1145C189.864 17.1145 189.907 17.0824 189.919 17.0824C189.919 17.0824 189.947 17.0795 189.965 17.0795C190.034 17.043 190.103 17.0109 190.169 16.9773C189.974 16.988 190.147 16.913 190.147 16.913L190.279 16.8288L190.459 16.7392L190.753 16.713C190.8 16.6945 190.846 16.675 190.897 16.6541L190.405 16.6954C190.406 16.6969 190.243 16.6813 190.298 16.6404ZM189.522 16.951L189.418 16.8614L189.646 16.7947L189.729 16.8186L189.522 16.951Z" fill="white"/>
<path d="M188.75 12.037C188.715 12.0497 188.703 12.0882 188.718 12.1154C188.735 12.148 188.774 12.1587 188.807 12.1466C188.838 12.1291 188.923 12.0497 188.932 12.0176C188.933 12.0181 188.779 12.0229 188.75 12.037Z" fill="white"/>
<path d="M210.941 1.13611C210.917 1.12102 210.877 1.10934 210.808 1.13611C210.675 1.1916 210.174 1.5484 210.013 1.66182C210.02 1.64284 210.027 1.6258 210.04 1.59659L210.068 1.54013C210.19 1.31427 210.512 0.707751 210.512 0.301784C210.512 0.211732 210.496 0.137743 210.462 0.0744624C210.457 0.0593725 210.444 0.017997 210.391 0.00436746C210.331 -0.0126695 210.256 0.0199441 210.161 0.105616C209.97 0.283287 208.848 1.22762 208.835 1.23687C208.824 1.24758 208.811 1.25488 208.802 1.26024V1.2505C208.802 1.23687 208.802 1.21983 208.806 1.18722L208.866 0.958438C208.914 0.796343 208.968 0.617698 208.968 0.473127C208.968 0.404493 208.958 0.346567 208.925 0.29643C208.921 0.272091 208.899 0.235097 208.861 0.23315C208.802 0.217573 208.736 0.278419 208.696 0.327096C208.578 0.473127 207.099 1.90326 206.833 2.10381C206.802 2.12377 206.786 2.13545 206.786 2.13545C206.779 2.08628 206.838 1.9607 206.93 1.8171C206.978 1.73289 207.285 1.08062 207.285 0.780766C207.285 0.733063 207.275 0.696555 207.257 0.67173C207.235 0.636196 207.206 0.621592 207.164 0.621592C206.96 0.62792 206.541 1.05677 205.52 2.11257C205.52 2.11257 204.718 2.94397 204.684 2.97513V2.95906C204.684 2.94057 204.687 2.90941 204.687 2.87291C204.687 2.7001 204.658 2.37591 204.545 2.21577C204.486 2.13788 204.43 2.10381 204.364 2.10673C204.267 2.10868 204.174 2.21479 204.047 2.45574C203.895 2.74537 202.773 3.82746 201.53 4.73675L201.489 4.76304C200.333 5.60807 199.567 6.16883 198.673 7.38527C197.987 8.32084 196.767 8.82416 195.88 9.19167C195.621 9.29827 195.37 9.39806 195.175 9.49883C195.092 9.49298 194.247 9.4151 193.294 9.4409C193.239 9.09334 192.976 8.07453 191.726 7.35168C190.448 6.61763 188.598 5.51996 187.289 4.4588C186.484 3.8041 185.948 3.18785 185.628 2.82082C185.426 2.58961 185.353 2.50734 185.297 2.49128C185.213 2.46305 185.163 2.49128 185.135 2.51367C185.111 2.53947 185.086 2.57695 185.086 2.67236C185.086 2.77214 185.116 2.93424 185.21 3.19904L185.212 3.21121C185.203 3.2078 185.187 3.20245 185.159 3.19174C184.973 3.10023 184.528 2.88507 184.01 2.2109C183.496 1.53915 183.092 0.543222 183.092 0.543222C183.077 0.501847 183.05 0.466799 183.012 0.464852C182.955 0.462905 182.922 0.529593 182.895 0.584111C182.851 0.698502 182.812 0.871306 182.812 1.13075C182.812 1.37171 182.847 1.692 182.951 2.10819H182.944C182.857 2.06243 182.164 1.44569 181.477 0.378207C181.457 0.352408 181.366 0.235583 181.271 0.267224C181.25 0.275985 181.222 0.292049 181.205 0.32953C181.192 0.362144 181.186 0.397191 181.186 0.444895C181.186 0.702883 181.383 1.21058 181.761 1.91251C181.59 1.76502 180.991 1.2028 180.531 0.651285C180.509 0.622079 180.389 0.463392 180.274 0.458037C180.234 0.458037 180.204 0.471667 180.176 0.500387C180.158 0.523265 180.146 0.565614 180.146 0.628407C180.146 0.849888 180.276 1.32303 180.594 1.93733C180.471 1.85994 180.116 1.61168 179.892 1.44862C179.881 1.43985 179.792 1.38388 179.711 1.41795C179.659 1.43985 179.633 1.50557 179.633 1.59708C179.633 1.80055 179.818 2.1447 179.885 2.27466C179.861 2.26444 179.806 2.24741 179.806 2.24741C179.719 2.207 179.602 2.16027 179.509 2.16027C179.469 2.16027 179.442 2.17439 179.421 2.20603C179.412 2.22209 179.411 2.24302 179.411 2.2698C179.411 2.39344 179.52 2.59399 179.602 2.70789C179.721 2.87145 180.213 3.29202 180.392 3.4434C180.213 3.39424 179.854 3.2998 179.836 3.29299C179.824 3.29202 179.692 3.26524 179.628 3.3256C179.612 3.34167 179.598 3.36503 179.598 3.40203C179.598 3.41614 179.598 3.43367 179.603 3.45557C179.656 3.6274 180.257 4.02558 181.391 4.63307C181.195 4.61652 181.091 4.62869 181.051 4.6798C181.051 4.6798 181.031 4.70657 181.031 4.72799C181.031 4.74454 181.036 4.75817 181.042 4.77618C181.119 4.93146 181.777 5.25321 182.355 5.42991C182.339 5.43186 182.32 5.43186 182.294 5.43186C182.16 5.43527 182.069 5.4377 182.033 5.48005C182.022 5.49416 182.02 5.50682 182.02 5.52142V5.53992C182.053 5.63143 182.09 5.7614 183.354 6.21264C183.187 6.20631 183.071 6.21264 183.033 6.26131C183.033 6.26131 183.022 6.28711 183.022 6.30853C183.022 6.31924 183.025 6.33092 183.032 6.34115C183.095 6.48182 183.716 6.81331 184.877 7.14383C184.784 7.16281 184.699 7.18423 184.671 7.22171L184.66 7.25433L184.662 7.27039C184.747 7.49528 185.898 7.87739 186.96 8.18893C186.871 8.19428 186.792 8.21034 186.758 8.24393C186.74 8.25513 186.733 8.27606 186.733 8.29455L186.74 8.3038C186.751 8.40943 187.053 8.72389 189.488 9.32164C189.511 9.32602 189.53 9.32894 189.546 9.33576C189.53 9.34647 189.505 9.35085 189.505 9.35085C189.457 9.37372 189.391 9.39855 189.391 9.46086V9.4667C189.391 9.52462 189.463 9.5918 189.631 9.68428C189.986 9.88581 190.576 10.0771 190.754 10.137C189.657 10.6583 188.586 11.3023 188.576 11.3096C188.567 11.3155 188.554 11.331 188.554 11.3437V11.3471V11.3646C188.554 11.4352 188.533 11.6864 188.232 11.8339C188.07 11.9156 187.795 12.0977 187.743 12.4131C187.736 12.4462 187.734 12.4818 187.734 12.5149C187.734 12.7879 187.905 13.0873 188.245 13.4076C188.319 13.4611 188.37 13.4767 188.402 13.4509C188.446 13.4095 188.452 13.3652 188.423 13.3083C188.412 13.2932 188.368 13.1603 188.419 13.0615C188.445 13.0055 188.495 12.9705 188.576 12.9515C188.796 12.8994 188.984 12.9403 189.12 12.9753L189.226 12.9977C189.353 13.0143 189.636 13.0162 189.862 12.9043C190.033 12.8152 190.612 12.8434 190.92 12.8566L191.009 12.86C191.009 12.86 191.075 12.8639 191.128 12.8663C191.069 12.9398 190.992 13.0313 190.87 13.1189L190.701 13.2367C190.522 13.3545 190.423 13.4261 190.278 13.5867C190.244 13.5935 189.303 13.7332 189.303 13.7332C189.303 13.7332 189.276 13.7439 189.271 13.7561C189.271 13.7561 189.019 14.1801 188.683 14.4683C188.347 14.7623 187.934 14.8888 187.934 14.8888C187.92 14.8918 187.916 14.8991 187.916 14.8991C187.905 14.9146 187.778 15.1054 187.756 15.5007C187.754 15.5406 187.751 15.5791 187.751 15.6195C187.751 15.6385 187.754 15.6545 187.754 15.6691L187.758 15.6925C187.758 15.6925 187.818 15.7796 187.905 15.8186C187.932 15.8317 188.055 15.9067 188.182 15.9811C188.182 15.9811 188.281 16.0152 188.397 16.04H188.402H188.406L188.422 16.0498L188.431 16.0522L188.463 16.0624C187.439 16.3243 186.488 16.6441 185.628 17.0224C182.916 18.2218 181.424 19.8539 181.424 21.6326C181.424 23.4063 182.916 25.0385 185.628 26.2374C188.202 27.3726 191.608 28 195.231 28C198.847 28 202.256 27.3726 204.826 26.2374C207.541 25.0385 209.034 23.4063 209.034 21.6326C209.034 19.8544 207.541 18.2218 204.826 17.0224C203.22 16.3117 201.282 15.803 199.17 15.5187H199.172C199.172 15.5187 199.189 15.5158 199.195 15.509C199.293 15.4652 199.351 15.3995 199.37 15.3118C199.508 15.3873 199.853 15.5508 200.159 15.4837C200.536 15.398 200.647 15.0816 200.664 15.0422C200.672 15.0222 200.698 14.9945 200.719 14.9954L200.773 15.0125C200.891 15.0524 201.1 15.1244 201.301 15.0329C201.455 14.9618 201.531 14.846 201.585 14.7628C201.618 14.7112 201.646 14.6708 201.675 14.6547C201.706 14.6357 201.762 14.6279 201.814 14.6182C201.935 14.6007 202.087 14.5788 202.172 14.4761C202.172 14.4761 202.257 14.3621 202.257 14.2604C202.257 14.2205 202.259 14.1212 202.321 14.1003C202.321 14.1003 202.883 13.9104 202.999 13.5405C202.999 13.5405 203.037 13.4441 202.985 13.3516C202.944 13.2664 202.845 13.2095 202.703 13.1827L198.318 12.103C198.318 12.103 198.161 12.0378 198.032 11.8762C198.405 11.8835 199.849 11.8889 200.771 11.6172C200.795 11.6065 200.863 11.5676 200.863 11.5092C200.863 11.4814 200.855 11.4459 200.804 11.4191C200.748 11.3894 200.695 11.3666 200.659 11.3481L200.688 11.3471C200.854 11.3135 202.101 11.0521 202.383 10.9294C202.509 10.8749 202.572 10.8146 202.572 10.7576V10.743C202.558 10.669 202.465 10.632 202.407 10.632C202.362 10.632 202.276 10.6199 202.207 10.6091C202.249 10.5999 202.301 10.5902 202.301 10.5902C202.655 10.5167 203.599 10.3273 204.165 10.099C204.199 10.0825 204.289 10.025 204.289 9.95688V9.95249C204.289 9.92962 204.276 9.89652 204.225 9.8712C204.111 9.81376 203.629 9.79527 203.557 9.79089C203.568 9.78359 203.581 9.77969 203.604 9.76606C203.638 9.75146 203.767 9.70765 203.931 9.66043C204.554 9.4667 205.715 9.10649 206.033 8.70782C206.044 8.69419 206.074 8.64795 206.074 8.60219C206.074 8.59246 206.07 8.57932 206.064 8.56715C206.054 8.55011 206.033 8.52285 205.985 8.51944C205.894 8.51165 205.65 8.51263 205.563 8.51701L205.588 8.49997L205.684 8.45519C206.064 8.27898 207.22 7.73428 207.82 7.26017C207.838 7.23924 207.941 7.13848 207.941 7.05865L207.937 7.04794L207.896 6.98125C207.896 6.98125 207.822 6.91359 207.653 6.93257C207.637 6.93549 207.624 6.93744 207.624 6.93744C207.624 6.92673 207.649 6.91359 207.677 6.89606L207.73 6.87221C208.494 6.50713 209.024 6.16883 209.296 5.86946C209.305 5.85486 209.339 5.80716 209.339 5.76238C209.339 5.74436 209.337 5.73171 209.337 5.73171C209.322 5.6952 209.289 5.66405 209.214 5.66161C209.07 5.65285 208.711 5.70202 208.643 5.71516V5.71419C208.643 5.71419 208.654 5.6952 208.707 5.65626L208.806 5.59687C209.073 5.43088 209.695 5.04585 210.007 4.57076C210.013 4.56735 210.017 4.5581 210.017 4.5581C210.017 4.53036 210.01 4.43641 209.957 4.39406C209.933 4.37946 209.901 4.3707 209.866 4.37946C209.866 4.37946 209.583 4.44615 209.535 4.45686C209.535 4.45686 209.546 4.44079 209.562 4.42911C209.574 4.41792 210.59 3.45508 210.8 2.91185C210.866 2.73904 210.894 2.6378 210.894 2.57549C210.894 2.53557 210.883 2.51464 210.858 2.49663C210.808 2.4572 210.733 2.49907 210.652 2.54726L210.619 2.56381L209.898 2.94495H209.888C209.898 2.93473 209.91 2.90941 209.947 2.86755L210.076 2.72006C210.37 2.40269 210.914 1.81759 210.995 1.3313V1.32838C210.995 1.32838 211 1.30453 211 1.28117C211 1.23444 210.993 1.16775 210.941 1.13611ZM205.458 3.42636C206.307 2.88556 207.359 2.13837 208.286 1.24758L208.29 1.2505C208.29 1.27679 208.273 1.32059 208.223 1.38728C208.032 1.63456 206.966 2.62125 205.418 3.59138C205.432 3.52859 205.446 3.47066 205.458 3.42636ZM209.466 1.16775C209.479 1.15801 209.498 1.15363 209.511 1.15801C209.531 1.16434 209.539 1.17797 209.543 1.1916V1.20572C209.543 1.24758 209.521 1.36002 209.324 1.57031C209.121 1.78157 207.18 3.47066 204.896 4.6394C204.996 4.50845 205.086 4.37021 205.156 4.23878C206.282 3.6201 207.782 2.64704 209.466 1.16775ZM205.118 3.6347C205.114 3.65612 205.048 3.77927 204.748 3.98956C204.431 4.16918 204.101 4.34441 203.758 4.51284C203.795 4.45783 203.833 4.40185 203.87 4.34344C203.94 4.30644 204.436 4.05624 205.118 3.6347ZM203.194 7.74353C202.523 7.96891 201.887 8.14512 201.303 8.26778C201.285 8.27216 201.266 8.26583 201.257 8.2522C201.248 8.24004 201.245 8.21911 201.254 8.20694L201.532 7.78101C201.54 7.7669 201.548 7.763 201.56 7.76154C201.922 7.68414 202.649 7.51621 203.613 7.22123C203.613 7.22123 203.63 7.23729 203.63 7.26455L203.622 7.28402C203.618 7.30349 203.613 7.32588 203.605 7.34146C203.558 7.44757 203.444 7.62379 203.194 7.74353ZM203.194 8.19379V8.19769C203.186 8.21326 203.174 8.23517 203.165 8.24831C203.095 8.33788 202.918 8.48878 202.582 8.60219C201.956 8.80177 201.284 8.98528 200.618 9.12206C200.599 9.12547 200.581 9.11963 200.567 9.10308C200.557 9.08896 200.563 9.06998 200.576 9.05489L200.854 8.74044C200.854 8.74044 200.871 8.72827 200.882 8.72486C201.162 8.67083 202.006 8.50581 203.18 8.15047C203.18 8.15144 203.205 8.16313 203.194 8.19379ZM203.505 6.825C202.965 7.00802 202.431 7.16184 201.91 7.26552C201.89 7.27039 201.877 7.26455 201.869 7.25384C201.859 7.24167 201.854 7.22512 201.863 7.20954L202.082 6.78605C202.082 6.78605 202.101 6.76658 202.114 6.7622C202.431 6.69551 203.033 6.54948 203.829 6.28857C203.843 6.29101 203.86 6.30172 203.86 6.32459V6.33336C203.855 6.365 203.849 6.40102 203.843 6.42682C203.81 6.53585 203.724 6.69016 203.505 6.825ZM203.787 5.84853C203.33 6.0155 202.867 6.15325 202.416 6.25596C202.403 6.25742 202.383 6.25255 202.372 6.24233C202.363 6.22967 202.357 6.21166 202.363 6.19803L202.496 5.90403C202.499 5.89721 202.509 5.88504 202.525 5.88407C202.986 5.77552 203.444 5.6402 203.897 5.47615C203.897 5.47615 203.917 5.48589 203.925 5.51558V5.58909C203.915 5.66453 203.881 5.776 203.787 5.84853ZM203.086 5.40703C203.067 5.40995 203.041 5.40703 203.033 5.39146C203.021 5.37637 203.021 5.35154 203.037 5.34132L203.219 5.1432L203.23 5.13785C203.486 5.04098 203.991 4.84384 204.674 4.49434C204.531 4.68661 204.333 4.86964 204.096 5.022C203.762 5.16413 203.419 5.29556 203.086 5.40703ZM185.66 3.39132C185.708 3.4361 185.794 3.57775 185.794 3.57775C186.144 4.10395 186.989 5.05851 188.368 5.868C189.747 6.67896 189.996 6.72423 191.366 7.68414C192.737 8.64649 192.633 9.28319 192.64 9.3674C192.644 9.44917 192.55 9.47254 192.55 9.47254C192.255 9.52414 191.646 9.72712 191.535 9.78115C191.429 9.83324 191.468 9.72225 191.468 9.72225C191.63 9.48033 191.662 9.19167 191.662 9.19167C191.689 7.98886 189.566 7.33513 187.689 5.90208C185.806 4.47438 185.737 3.82941 185.643 3.61134C185.544 3.39132 185.609 3.34507 185.66 3.39132ZM185.893 5.92009C186.334 5.9931 186.779 6.05784 187.224 6.10944L187.253 6.1182L187.265 6.12307L187.645 6.33871C187.656 6.34747 187.661 6.35721 187.656 6.37717C187.651 6.38739 187.64 6.3981 187.626 6.39274L187.411 6.37133C187.214 6.34942 186.954 6.31924 186.652 6.27251C186.243 6.17808 185.907 6.0301 185.891 5.97509C185.88 5.9381 185.886 5.92496 185.886 5.92496L185.893 5.92009ZM185.335 5.42212C185.312 5.38513 185.306 5.36322 185.301 5.35057L185.713 5.43673L186.47 5.57205L186.486 5.57351L186.877 5.78963C186.891 5.79742 186.895 5.81251 186.891 5.82419C186.88 5.84026 186.868 5.84805 186.855 5.8461C186.695 5.81933 186.463 5.776 186.187 5.72441C185.706 5.59347 185.378 5.47859 185.335 5.42212ZM186.779 6.65706C187.101 6.70671 187.421 6.75198 187.747 6.79335L188.372 6.86102L188.385 6.86296L188.77 7.06984C188.781 7.08006 188.789 7.09077 188.782 7.10684C188.778 7.12046 188.764 7.12971 188.749 7.12728L187.931 7.04063C187.796 7.02554 187.656 7.00169 187.523 6.98417C186.956 6.88097 186.795 6.7218 186.778 6.69308C186.765 6.6629 186.779 6.65706 186.779 6.65706ZM187.782 7.33513C187.907 7.35217 188.024 7.36969 188.143 7.38186C188.492 7.42032 188.849 7.45293 189.21 7.48067L189.225 7.48603L189.372 7.57852C189.384 7.58241 189.393 7.59896 189.384 7.61454C189.381 7.62427 189.366 7.6379 189.354 7.63401H189.331C189.191 7.61551 188.982 7.60821 188.755 7.59117C188.256 7.55515 187.833 7.43394 187.796 7.39062C187.761 7.3585 187.776 7.34195 187.776 7.34195L187.782 7.33513ZM185.477 4.87791L185.524 4.88716L185.592 4.90663H185.602L185.977 5.15196C185.992 5.16024 185.997 5.17582 185.992 5.18847C185.984 5.20016 185.973 5.20892 185.952 5.20892L185.589 5.12276C185.514 5.10767 185.447 5.08576 185.375 5.06532C184.967 4.93048 184.878 4.83459 184.832 4.77131C184.826 4.75671 184.817 4.74795 184.812 4.73334C184.808 4.72069 184.808 4.71728 184.812 4.71533C185.032 4.77131 185.257 4.8268 185.477 4.87791ZM185.149 4.45686C185.143 4.47097 185.127 4.47876 185.113 4.47097C184.951 4.43057 184.689 4.36194 184.366 4.26118C184.129 4.15506 183.924 4.03531 183.753 3.91654C183.726 3.89172 183.726 3.87955 183.726 3.87955C184.058 3.98858 184.422 4.10346 184.821 4.21396L185.143 4.41694C185.155 4.42522 185.158 4.44225 185.149 4.45686ZM183.21 1.70514C183.907 2.88946 184.702 3.29202 184.749 3.31781C184.917 3.41322 185.048 3.70334 185.097 3.82113C185.097 3.82113 185.107 3.84158 185.111 3.86008H185.107C185.02 3.8299 183.887 3.1713 183.543 2.57208C183.281 2.11792 183.217 1.82051 183.205 1.69687L183.21 1.70514ZM183.068 3.05204C183.377 3.20878 183.71 3.36162 184.066 3.50765L184.348 3.73741C184.361 3.74715 184.361 3.7671 184.354 3.77733C184.343 3.79095 184.324 3.79728 184.312 3.79095L184.026 3.67802L184.034 3.68143C184.023 3.67802 183.987 3.6605 183.843 3.6016C183.726 3.55098 183.595 3.49062 183.46 3.42734C183.251 3.30321 183.142 3.23458 183.094 3.18103C183.084 3.1601 183.075 3.13917 183.068 3.1197C183.061 3.08806 183.066 3.06226 183.068 3.05204ZM180.757 1.35418C180.772 1.34542 180.792 1.34931 180.8 1.36538C180.871 1.46371 181.083 1.73046 181.539 2.09699L181.585 2.13545C181.738 2.25373 181.907 2.37153 182.082 2.49274C182.279 2.61686 182.482 2.7405 182.697 2.85782C182.718 2.91964 182.736 2.98973 182.764 3.05934C182.502 2.90941 182.229 2.7405 181.961 2.54726C181.673 2.34135 181.411 2.11792 181.178 1.89109L180.946 1.64965L180.869 1.55376C180.826 1.51092 180.772 1.44569 180.747 1.4014V1.39604L180.739 1.3941L180.736 1.37949C180.736 1.3683 180.747 1.35759 180.757 1.35418ZM180.545 2.34135H180.541L180.533 2.34038V2.32578C180.533 2.31312 180.538 2.299 180.545 2.2956C180.555 2.28635 180.579 2.28635 180.587 2.299C180.636 2.34135 180.746 2.44309 180.952 2.58668C181.3 2.82033 181.965 3.21462 183.102 3.64882C183.171 3.73644 183.254 3.826 183.35 3.90924C182.531 3.60014 181.599 3.16886 180.851 2.61638L180.69 2.49225C180.629 2.43919 180.567 2.37981 180.545 2.34135ZM180.835 3.2336L180.722 3.15961H180.725L180.72 3.15523L180.704 3.13381L180.712 3.11386C180.725 3.10071 180.747 3.09439 180.759 3.10412C180.932 3.21803 181.585 3.61231 182.76 4.05917C183.048 4.16723 183.346 4.2748 183.651 4.3707C183.87 4.44225 184.1 4.51624 184.334 4.58293C184.4 4.60873 184.468 4.67006 184.495 4.72117C184.501 4.72994 184.506 4.74405 184.506 4.74405L184.52 4.76596C184.531 4.81269 184.512 4.83118 184.512 4.83118C184.156 4.7275 183.811 4.61846 183.485 4.50553C182.444 4.13997 181.604 3.75007 180.992 3.34313L180.835 3.2336ZM181.319 4.12683C181.319 4.12683 181.203 4.05917 181.194 4.05186L181.191 4.04992L181.187 4.04797C181.187 4.04797 181.174 4.03337 181.174 4.02363L181.175 4.00659C181.187 3.99199 181.208 3.98907 181.224 3.99637L181.431 4.10395C181.656 4.20812 182.023 4.37703 182.546 4.56735C183.196 4.80831 183.906 5.02248 184.646 5.19967L184.792 5.23812C184.831 5.26782 184.928 5.35057 184.943 5.39146C184.954 5.42358 184.943 5.43965 184.943 5.43965C184.923 5.44403 184.87 5.42894 184.742 5.39778L184.37 5.29946L183.714 5.11059L183.678 5.09891L183.443 5.02492L183.107 4.91539C182.395 4.66812 181.793 4.40185 181.319 4.12683ZM182.243 5.10085H182.241H182.243L182.258 5.1101C182.258 5.10962 182.251 5.10962 182.243 5.10085ZM182.421 5.45036L182.433 5.45133H182.423L182.421 5.45036ZM182.69 5.25662L182.698 5.26003C182.685 5.25662 182.635 5.23228 182.323 5.09842L182.235 5.05704C182.235 5.05704 182.219 5.03806 182.219 5.02881L182.22 5.01567C182.229 4.99863 182.249 4.99522 182.261 4.99863C182.462 5.07311 182.876 5.21671 183.476 5.38513C184.058 5.54722 184.674 5.68839 185.301 5.81251C185.355 5.84318 185.511 5.98726 185.531 6.0189C185.553 6.04275 185.544 6.06271 185.537 6.07537C185.165 5.99846 184.805 5.91765 184.458 5.82809C184.086 5.73609 183.73 5.629 183.399 5.51753C183.152 5.43673 182.918 5.34862 182.69 5.25662ZM183.734 6.00284V6.00187C183.723 5.99262 183.715 5.98337 183.715 5.97461V5.96439C183.723 5.94686 183.738 5.93956 183.756 5.94394C184.082 6.05346 184.953 6.32265 186.251 6.56165C186.334 6.60643 186.542 6.75685 186.567 6.77875C186.584 6.79579 186.584 6.81137 186.584 6.8211C186.558 6.81283 186.536 6.81088 186.507 6.8026C185.449 6.59573 184.516 6.32459 183.734 6.00284ZM185.275 6.89996C185.259 6.89266 185.254 6.88292 185.254 6.87075L185.257 6.86053C185.259 6.8469 185.277 6.83668 185.293 6.83911C185.875 6.99975 186.512 7.13555 187.186 7.24751C187.242 7.27039 187.358 7.34097 187.4 7.3692C187.429 7.38478 187.436 7.40863 187.436 7.41788C187.381 7.40863 187.328 7.40133 187.279 7.39111C186.588 7.26455 185.91 7.10002 185.275 6.89996ZM186.643 7.68707C186.623 7.6822 186.609 7.66565 186.619 7.64764C186.623 7.63352 186.643 7.62379 186.658 7.62817C187.029 7.7153 187.593 7.83212 188.287 7.93142C188.311 7.93434 188.355 7.95138 188.394 7.96939C188.449 7.99665 188.634 8.09595 188.639 8.13149C188.143 8.0502 187.457 7.91633 186.643 7.68707ZM189.44 8.73752C189.218 8.71318 188.97 8.67472 188.674 8.62897C188.655 8.62556 188.643 8.6095 188.648 8.59587C188.648 8.57542 188.66 8.56471 188.683 8.56715C188.915 8.58856 189.161 8.60755 189.425 8.61972H189.427C189.427 8.61972 189.496 8.61972 189.556 8.65136C189.613 8.68592 189.765 8.74823 189.775 8.77305C189.668 8.76429 189.556 8.75163 189.44 8.73752ZM189.805 8.2415C189.347 8.223 188.971 8.08281 188.933 8.04435C188.901 8.01466 188.915 8.00639 188.915 8.00639C189.253 8.03316 189.589 8.05555 189.923 8.06723H189.932C189.932 8.06723 189.971 8.08622 190.004 8.10374C190.062 8.14268 190.183 8.25464 189.805 8.2415ZM190.608 8.77743C190.551 8.79155 190.375 8.75163 190.284 8.71999C190.268 8.7088 190.252 8.70247 190.233 8.69371C190.18 8.66401 190.186 8.63724 190.186 8.63724L190.263 8.63432H190.541L190.56 8.64114C190.578 8.65136 190.643 8.69371 190.645 8.74092C190.643 8.75358 190.632 8.76916 190.608 8.77743ZM190.719 9.18048L190.7 9.17074C190.66 9.14932 190.666 9.13423 190.666 9.13423L190.707 9.12596L190.864 9.13131L190.876 9.13423C190.887 9.14299 190.927 9.16831 190.927 9.19459C190.927 9.20335 190.917 9.21017 190.903 9.21747C190.872 9.22331 190.772 9.19995 190.719 9.18048ZM190.896 13.5035L191.743 12.9043C191.82 12.8498 191.86 12.8444 191.86 12.8444L192.393 12.8366C192.393 12.8366 191.608 13.2567 191.37 13.3575C191.13 13.4529 190.917 13.5239 190.917 13.5239C190.88 13.5244 190.896 13.5035 190.896 13.5035ZM195.039 12.5265C195.024 12.4672 194.899 12.2247 194.369 12.123C194.369 12.123 194.342 12.1026 194.399 12.0787C194.464 12.048 194.85 11.9765 195.408 12.1532C195.408 12.1532 195.446 12.1692 195.435 12.14C195.435 12.1152 195.319 11.9171 195.073 11.8387C195.073 11.8387 195.049 11.8105 195.086 11.8056C195.121 11.8008 196.074 11.6888 196.082 12.9364C196.082 12.9364 196.062 12.9841 196.021 12.9461C195.977 12.9077 195.784 12.6404 195.652 12.5241C195.518 12.4058 195.508 12.5353 195.518 12.7285C195.533 12.9194 195.421 13.6188 195.34 13.4947C195.266 13.3706 195.206 13.1189 195.108 13.2489C195.014 13.3798 194.882 13.6554 194.389 13.9421C194.389 13.9421 194.342 13.9591 194.347 13.907C194.355 13.8476 194.408 13.4991 194.408 13.4991C194.408 13.4991 194.408 13.4392 194.393 13.4392C194.38 13.4392 193.887 13.8325 193.34 14.0701C193.34 14.0701 193.261 14.1085 193.281 14.0482C193.302 13.9942 193.502 13.557 193.502 13.557C193.502 13.557 193.052 13.8238 192.193 13.853C192.193 13.853 192.161 13.853 192.161 13.8272C192.161 13.8014 192.112 13.5507 191.978 13.4533C191.978 13.4533 192.427 13.2932 192.871 13.0299C193.08 12.9077 193.28 12.7597 193.442 12.64C193.801 12.5523 194.273 12.4905 194.988 12.5553C194.988 12.5553 195.059 12.5859 195.039 12.5265ZM197.669 14.956L197.671 14.9735L197.641 15.012C197.617 15.0222 197.568 15.0256 197.474 14.9716L196.668 13.8598C196.661 13.8535 196.664 13.8398 196.664 13.8398C196.686 13.8277 196.698 13.8296 196.698 13.8296L197.669 14.956ZM197.018 13.4709C197.028 13.4645 197.037 13.4606 197.051 13.4709L198.889 14.994L198.894 15.0169C198.879 15.0514 198.848 15.0762 198.813 15.0904C198.765 15.1196 198.7 15.1132 198.624 15.0904C198.624 15.0904 198.574 15.065 198.567 15.0612L197.775 14.2599L197.205 13.6894L197.018 13.4981C197.011 13.4894 197.012 13.4791 197.018 13.4709ZM196.732 14.5715C196.711 14.5788 196.689 14.5715 196.685 14.5559L196.381 13.9805C196.375 13.9649 196.379 13.9484 196.394 13.944C196.408 13.9382 196.428 13.9421 196.435 13.9567L196.743 14.5276C196.756 14.5447 196.748 14.5651 196.732 14.5715ZM196.827 12.0631C196.815 12.0743 196.793 12.0724 196.776 12.0597C196.529 11.7881 196.221 11.625 196.221 11.625C196.203 11.6172 196.197 11.5992 196.203 11.5846C196.214 11.5695 196.233 11.5647 196.251 11.5715C196.258 11.5798 196.575 11.7394 196.834 12.0169C196.843 12.0305 196.84 12.0505 196.827 12.0631ZM196.502 12.3649C196.52 12.3966 196.499 12.4345 196.465 12.4462C196.432 12.4603 196.392 12.4462 196.38 12.4131C196.171 11.9395 195.838 11.7423 195.838 11.7423C195.801 11.7214 195.792 11.683 195.814 11.6538C195.834 11.6246 195.873 11.6168 195.907 11.6362C195.92 11.644 196.276 11.8563 196.502 12.3649ZM188.943 14.6464C189.082 14.4678 189.547 14.0107 189.547 14.0107C189.547 14.0107 190.185 13.9489 190.547 13.8841C190.912 13.8175 191.6 13.7284 191.6 13.7284L191.613 13.7887C191.6 13.8676 191.477 13.8676 191.477 13.8676C191.111 13.907 191.007 14.0681 190.998 14.2205C190.985 14.3695 190.9 14.5739 190.9 14.5739C190.903 14.5028 190.834 14.275 190.638 14.2205C190.437 14.1597 189.988 14.2706 189.805 14.5199C189.621 14.7667 189.795 15.1244 189.795 15.1244C189.457 14.9799 189.422 14.7798 189.432 14.6966C189.443 14.6094 189.534 14.4507 189.546 14.4133C189.556 14.3777 189.517 14.3875 189.517 14.3875C189.517 14.3875 189.236 14.6158 189.217 14.7258C189.2 14.8338 189.32 15.1244 189.32 15.1244C189.32 15.1244 189.031 14.9458 188.947 14.8406C188.863 14.7389 188.943 14.6464 188.943 14.6464ZM188.686 15.9846L188.702 15.9855L188.686 15.988V15.9846ZM189.165 15.8853H189.157C189.141 15.8599 189.122 15.8327 189.106 15.8074L188.947 15.6146L188.944 15.6097L188.935 15.6034C188.935 15.6034 188.922 15.5932 188.914 15.5762V15.5723L188.906 15.5435C188.906 15.5323 188.914 15.5177 188.924 15.5007C188.963 15.4408 189.01 15.399 189.037 15.3722C189.121 15.4326 189.38 15.5878 189.822 15.6613C189.838 15.6613 189.851 15.6579 189.863 15.6477C189.863 15.6477 189.874 15.6282 189.874 15.6156V15.6141C189.874 15.6141 189.867 15.5304 189.858 15.4744C189.943 15.4866 190.117 15.5051 190.32 15.5012C190.32 15.5012 190.362 15.5051 190.38 15.4803C190.38 15.4803 190.397 15.4491 190.38 15.4194L190.339 15.3707C190.269 15.2997 190.098 15.1274 190.098 14.9614C190.098 14.8674 190.217 14.754 190.364 14.7165C190.449 14.6961 190.613 14.6844 190.729 14.8557C190.93 15.1721 190.807 15.3118 190.802 15.3148C190.788 15.3308 190.788 15.3488 190.799 15.3664C190.807 15.381 190.829 15.3868 190.845 15.3849C190.845 15.3849 191.197 15.2953 191.204 14.9653L191.197 14.7754C191.195 14.6085 191.192 14.5345 191.313 14.4176C191.313 14.4176 191.411 14.3665 191.485 14.4473C191.514 14.4955 191.667 14.662 192.362 14.5646H192.365V14.571C192.345 14.6274 192.252 14.7384 192.221 14.7779C192.221 14.7779 192.191 14.8036 192.191 14.8402V14.8557C192.203 14.8791 192.225 14.9034 192.278 14.9088C192.389 14.9244 193.144 14.9263 193.815 14.6357C193.806 14.6795 193.769 14.7705 193.747 14.8226C193.73 14.8416 193.721 14.8679 193.732 14.8922C193.74 14.9088 193.765 14.9283 193.811 14.9283C193.88 14.9283 194.548 14.7506 195.235 14.0248L195.25 14.0175C195.265 14.036 195.331 14.1558 195.375 14.2336C195.398 14.2575 195.444 14.3086 195.494 14.2804C195.494 14.2804 195.522 14.2701 195.836 13.9026C195.836 13.9026 195.852 13.9026 195.866 13.9221C195.909 13.9688 196.216 14.5233 196.407 14.8869C196.417 14.8991 196.58 15.1463 196.798 15.1463L196.937 15.1405C197.034 15.1327 197.072 15.1274 197.162 15.1736L197.25 15.2228C197.315 15.268 197.396 15.3138 197.486 15.3488C196.747 15.2914 195.996 15.2612 195.231 15.2612C193.089 15.2612 191.028 15.4837 189.167 15.894L189.165 15.8853ZM205.323 17.6931C205.458 17.7588 205.583 17.826 205.706 17.8956C207.592 18.9495 208.61 20.2516 208.61 21.6326C208.61 23.2491 207.205 24.7605 204.647 25.8903C202.127 27.0016 198.783 27.6116 195.233 27.6116C191.675 27.6116 188.328 27.0016 185.815 25.8903C183.26 24.7605 181.848 23.2491 181.848 21.6326C181.848 20.3952 182.672 19.2172 184.204 18.2266C184.674 17.9248 185.212 17.6362 185.815 17.3719C185.875 17.3451 185.938 17.3173 186.004 17.291C188.497 16.2309 191.762 15.6487 195.233 15.6487C198.784 15.6487 202.127 16.2615 204.647 17.3719C204.882 17.4746 205.109 17.5787 205.323 17.6931ZM197.867 15.3761C198.02 15.3391 198.101 15.2525 198.101 15.2525C198.101 15.2525 198.118 15.2422 198.152 15.2593L198.257 15.3216L198.426 15.4296C198.24 15.4131 198.051 15.3931 197.867 15.3761ZM200.168 15.0207C200.139 15.0514 200.052 15.1093 199.865 15.0023L197.257 13.227L197.191 13.1603C197.182 13.155 197.18 13.1442 197.184 13.1365L197.213 13.1292L197.348 13.1949L200.017 14.7477C200.029 14.7623 200.161 14.8494 200.189 14.8952L200.192 14.8995L200.199 14.9434C200.198 14.9755 200.186 15.0023 200.168 15.0207ZM201.106 14.532L201.088 14.5685C201.041 14.6279 200.968 14.663 200.882 14.663H200.863L200.805 14.6454L200.745 14.6245L198.718 13.5541L197.539 12.9194L197.499 12.8882C197.499 12.8882 197.484 12.8736 197.49 12.8639C197.49 12.8639 197.504 12.8498 197.518 12.8532L197.602 12.8775L201.113 14.4634L201.126 14.4892L201.106 14.532ZM201.783 14.1645C201.736 14.239 201.665 14.2745 201.569 14.2765L201.545 14.2745H201.532L197.603 12.5898L197.59 12.5728L197.61 12.5455L200.982 13.7332L201.813 14.0316C201.824 14.0365 201.831 14.0419 201.831 14.0419C201.815 14.0949 201.8 14.1324 201.783 14.1645ZM202.061 13.5492H202.056C202.095 13.5536 202.141 13.595 202.157 13.6359C202.168 13.667 202.162 13.6953 202.141 13.7177C202.082 13.78 201.973 13.7571 201.973 13.7571L197.917 12.3659L197.841 12.3279C197.83 12.3236 197.829 12.3138 197.829 12.3138C197.829 12.3138 197.845 12.2909 197.857 12.2934L197.923 12.3046L202.061 13.5492ZM198.292 10.1861C197.203 10.9012 195.014 11.1689 194.565 11.1636C194.113 11.148 193.77 11.6679 193.097 12.1167C192.42 12.5679 191.728 12.4457 191.728 12.4457C191.906 12.2247 191.866 11.8986 191.866 11.8986C191.642 12.2763 191.286 12.4477 191.02 12.5144C190.756 12.5762 190.618 12.5728 190.243 12.5679C189.874 12.5601 189.616 12.6984 189.43 12.7203C189.243 12.7466 188.984 12.6867 188.984 12.6867C189.105 12.6249 189.294 12.5557 189.417 12.5489C189.539 12.5426 189.868 12.4603 189.868 12.4603C189.472 12.3532 188.947 12.5679 188.947 12.5679C188.659 12.6726 188.51 12.5762 188.51 12.5762C188.121 12.6808 188.173 12.9637 188.173 12.9637C188.173 12.9637 188.041 12.7694 188.032 12.4598C188.023 12.1512 188.827 11.7871 188.827 11.7871C189.262 11.7107 189.449 11.9161 189.449 11.9161C189.562 12.0967 189.747 12.1926 189.886 12.0884C190.027 11.9872 190.066 11.8382 190.184 11.8309C190.305 11.8222 190.405 11.8309 190.405 11.8309C190.405 11.8309 190.56 11.7438 190.56 11.7195C190.56 11.6946 190.518 11.7019 190.518 11.7019C190.518 11.7019 190.305 11.754 189.713 11.7803C189.116 11.8047 188.914 11.461 188.914 11.461C190.008 11.1431 191.087 10.1818 192.252 9.95931C193.413 9.73734 194.633 9.92426 194.633 9.92426C194.31 10.2718 194.224 10.5551 194.224 10.5551C196.903 8.92638 198.554 8.44156 198.554 8.44156C199.684 6.56749 200.92 5.72392 201.881 5.14369C202.834 4.56833 204.011 3.2078 204.112 3.03159C204.22 2.83445 204.277 2.84273 204.277 2.84273C204.232 3.51885 203.522 4.2456 202.937 4.77277C202.346 5.29556 201.458 5.87871 201.458 5.87871C201.399 5.93956 201.446 5.9639 201.446 5.9639C201.446 5.9639 201.629 5.98288 201.658 5.98288C201.682 5.98288 201.682 6.03205 201.682 6.03205C201.491 6.30123 201.152 6.50665 201.106 6.55824C201.061 6.61179 201.121 6.6225 201.121 6.6225C201.121 6.6225 201.194 6.63126 201.25 6.64732C201.303 6.66533 201.25 6.76025 201.25 6.76025L200.7 7.24946C200.653 7.29765 200.673 7.31809 200.673 7.31809C200.673 7.31809 200.932 7.29083 200.961 7.29765C200.989 7.30252 200.989 7.35655 200.989 7.35655C200.882 7.60383 200.524 7.89589 200.482 7.93873C200.435 7.98838 200.449 8.0059 200.449 8.0059C200.449 8.0059 200.695 7.99276 200.713 7.99276C200.737 7.99276 200.729 8.02099 200.729 8.02099C200.267 8.64406 199.341 9.12158 199.341 9.12158C199.341 9.12158 199.605 9.23256 199.632 9.25203C199.657 9.27004 199.632 9.29535 199.632 9.29535C199.031 9.68234 198.081 9.96564 198.081 9.96564C198.081 9.96564 198.291 10.0601 198.308 10.0976C198.333 10.1311 198.292 10.1861 198.292 10.1861ZM199.392 10.8374C199.047 10.8555 198.474 10.8438 198.474 10.8438C198.432 10.8413 198.4 10.8136 198.401 10.779C198.401 10.7464 198.435 10.7182 198.471 10.7196C198.471 10.7196 199.043 10.7294 199.387 10.7153C199.425 10.7119 199.458 10.7411 199.458 10.7742C199.458 10.8087 199.43 10.8374 199.392 10.8374ZM201.329 9.88532L201.314 9.90187C201.296 9.91063 201.271 9.92085 201.254 9.92864C201.135 9.98073 200.905 10.0606 200.653 10.1248C200.486 10.1521 200.317 10.1857 200.146 10.2119C200.074 10.2192 200.019 10.2309 199.968 10.2358C199.7 10.2772 199.436 10.3078 199.187 10.3263C198.953 10.3482 199.139 10.2163 199.171 10.1934C199.182 10.1803 199.222 10.1784 199.222 10.1784C199.469 10.1584 200.192 10.0844 201.317 9.8381C201.339 9.84687 201.368 9.8566 201.329 9.88532ZM199.82 9.78991C199.785 9.79527 199.8 9.76606 199.8 9.76606C199.8 9.76606 199.935 9.67309 200.009 9.62198C200.084 9.56892 200.143 9.54604 200.143 9.54604C200.433 9.50467 201.312 9.34257 202.539 8.99356C202.539 8.99356 202.558 9.00475 202.546 9.02422C202.546 9.02422 202.53 9.03931 202.523 9.04564C202.449 9.0987 202.179 9.21796 201.767 9.35036C201.135 9.52219 200.483 9.67309 199.82 9.78991ZM204.537 8.97506C204.526 8.98285 204.511 8.98918 204.501 8.99356C204.401 9.03396 203.488 9.4409 201.937 9.83859C202.044 9.77093 202.154 9.69402 202.258 9.6176C202.902 9.45161 203.631 9.24473 204.472 8.95802C204.495 8.95023 204.537 8.94196 204.559 8.93222C204.559 8.93222 204.566 8.95023 204.537 8.97506ZM206.515 7.61502C206.496 7.64034 206.326 7.7226 206.072 7.83845C205.937 7.90514 205.763 7.97669 205.567 8.06139C205.491 8.0906 205.41 8.12321 205.323 8.15582C204.847 8.35345 204.244 8.57834 203.561 8.80664C203.351 8.87576 203.134 8.94585 202.911 9.01741C202.963 8.95656 203.016 8.89912 203.059 8.83974C203.257 8.77889 203.461 8.71902 203.673 8.65087C204.401 8.41917 205.202 8.16215 206.046 7.79659C206.192 7.7299 206.342 7.66467 206.496 7.59799C206.496 7.59896 206.579 7.54152 206.515 7.61502ZM207.469 6.52222V6.52758L207.466 6.53391L207.469 6.52758L207.466 6.53683L207.456 6.54705L207.466 6.53683C207.456 6.55581 207.453 6.58696 207.453 6.58696C207.428 6.61422 207.292 6.69016 207.047 6.81283L206.328 7.15843L206.046 7.28353C205.583 7.49479 205.091 7.69777 204.596 7.89589C204.257 8.02683 203.861 8.17238 203.434 8.3223C203.494 8.22105 203.547 8.12078 203.603 8.01758C203.859 7.93727 204.136 7.84527 204.415 7.74597C205.14 7.49187 205.937 7.13701 206.902 6.68627C207.015 6.63418 207.346 6.48231 207.428 6.47501C207.441 6.4716 207.461 6.48036 207.469 6.49983L207.47 6.51638L207.469 6.52222ZM209.048 4.99522C209.048 5.12957 207.541 5.92447 206.19 6.5451L205.246 6.96421C204.755 7.17352 204.28 7.35947 203.822 7.53081C203.879 7.38575 203.926 7.24313 203.965 7.1083C205.338 6.66339 207.102 5.96877 208.908 4.94022C208.923 4.92902 208.961 4.89884 209.003 4.91539C209.026 4.92221 209.048 4.94411 209.048 4.99522ZM209.694 3.56801C209.642 3.7082 206.926 5.52045 204.091 6.60838C204.116 6.45748 204.138 6.3134 204.157 6.17759C205.567 5.68839 207.486 4.86428 209.483 3.51447C209.575 3.45606 209.637 3.43123 209.677 3.45898C209.724 3.48964 209.699 3.55 209.694 3.56801ZM210.312 1.91835C210.214 2.05172 207.28 4.45053 204.19 5.6879C204.197 5.63484 204.197 5.58032 204.197 5.53067C204.197 5.4708 204.197 5.41531 204.19 5.36712C207.411 4.139 210.189 1.82927 210.221 1.80396L210.224 1.79958C210.285 1.75966 210.326 1.74944 210.356 1.77767C210.391 1.80834 210.356 1.85994 210.312 1.91835Z" fill="white"/>
<path d="M14.4408 20.6502C14.4408 18.9465 13.3467 18.8968 12.5546 18.8968H11.6036V17.7967C13.1054 17.8756 14.7122 17.9559 16.5418 17.9559C18.3725 17.9559 19.9793 17.8756 21.5635 17.7967V18.8968H21.0734C20.2824 18.8968 19.1883 18.9465 19.1883 20.6502V25.7004C17.6322 26.1185 13.947 26.8526 11.0555 26.8526C4.72329 26.8526 0 23.397 0 17.0656C0 12.1735 3.27753 7.27856 11.1659 7.27856C13.9206 7.27856 16.8143 7.90747 19.1873 8.6128L19.0241 13.9254H17.138C17.1142 10.8369 14.8215 9.00709 11.6834 9.00709C6.55241 9.00709 5.07655 12.5649 5.07655 17.0933C5.07655 21.4363 7.53404 25.2818 12.0657 25.2818C12.9369 25.2818 13.8393 25.126 14.4397 24.9936V20.6502H14.4408Z" fill="white"/>
<path d="M23.7919 10.3677C23.7919 9.26856 23.6013 8.74285 21.6074 8.71802V7.61792C23.002 7.69872 24.6098 7.77807 26.167 7.77807C27.7221 7.77807 29.3342 7.69872 30.9173 7.61792V8.71802C28.7338 8.74285 28.5443 9.26807 28.5443 10.3677V20.4141C28.5443 23.3971 30.508 24.4957 33.3732 24.4957C37.194 24.4957 38.4793 22.6397 38.4793 18.9232V10.3677C38.4793 9.26856 38.2865 8.74285 36.1042 8.71802V7.61792C37.0879 7.69872 38.1762 7.77807 39.294 7.77807C40.2255 7.77807 41.1812 7.69872 42.0794 7.61792V8.71802C40.4684 8.74285 40.2767 9.26807 40.2767 10.3677V19.1047C40.2767 25.2546 36.2927 26.8522 32.2553 26.8522C27.2326 26.8522 23.7924 25.5686 23.7924 20.0476V10.3677H23.7919Z" fill="white"/>
<path d="M43.4146 25.4128C45.7627 25.3841 45.9539 24.8613 45.9539 23.7621V10.3677C45.9539 9.26856 45.7633 8.74285 43.5798 8.71802V7.61792C45.1618 7.69872 46.776 7.77807 48.329 7.77807C49.883 7.77807 51.4962 7.69872 53.5703 7.61792V8.71802C50.8963 8.74285 50.703 9.26807 50.703 10.3677V24.026C50.703 24.8092 50.7342 25.0983 52.3151 25.0983C55.6164 25.0983 58.5101 24.522 59.2478 20.9895H60.5821C60.0953 22.846 59.7119 24.705 59.4072 26.5105C57.1155 26.4335 54.554 26.3527 51.6847 26.3527C48.63 26.3527 45.8472 26.4335 43.4146 26.5105V25.4128Z" fill="white"/>
<path d="M61.1006 25.4128C63.4488 25.3841 63.6389 24.8613 63.6389 23.7621V10.3677C63.6389 9.26856 63.4493 8.74285 61.2659 8.71802V7.61792C63.7503 7.69872 66.2886 7.77807 68.8263 7.77807C71.3899 7.77807 73.9293 7.69872 76.495 7.61792C76.495 9.1897 76.6032 11.1777 76.7115 12.379H75.346C75.1849 9.13518 73.2761 9.03345 70.4347 9.03345C69.2097 9.03345 68.3875 9.03345 68.3875 9.84441V16.465H70.7357C72.9181 16.465 73.6832 16.2007 73.6832 14.0301H74.8269C74.7456 14.8654 74.6648 16.097 74.6648 17.3509C74.6648 18.6082 74.7451 19.8398 74.8269 20.6746H73.6832V19.8913C73.6552 18.0324 72.7818 17.7208 70.9522 17.7208H68.3875V23.7626C68.3875 24.8618 68.5792 25.3846 71.3662 25.4133V26.5105C69.5603 26.4335 67.6255 26.3527 66.0953 26.3527C64.5666 26.3527 62.822 26.4335 61.1006 26.5105V25.4128Z" fill="white"/>
<path d="M89.6578 9.52995C89.1409 8.87525 88.2395 8.71851 87.6634 8.71851H87.3371V7.61841C88.5146 7.69921 89.6821 7.77855 90.8343 7.77855C92.007 7.77855 93.1793 7.69921 94.3779 7.61841L104.477 19.629H104.533V10.3677C104.533 9.26856 104.343 8.74285 101.915 8.71802V7.61792C103.168 7.69872 104.451 7.77807 105.434 7.77807C106.416 7.77807 107.698 7.69872 108.382 7.61792V8.71802C106.524 8.74285 106.338 9.26807 106.338 10.3677V26.51H104.097L91.5128 11.3846H91.46V23.7626C91.46 24.8618 91.6527 25.3846 94.0806 25.4133V26.5105C92.8213 26.4335 91.5424 26.3527 90.5586 26.3527C89.5749 26.3527 88.2939 26.4335 87.0366 26.5105V25.4133C89.4682 25.3846 89.6573 24.8618 89.6573 23.7626V9.52995H89.6578Z" fill="white"/>
<path d="M109.556 25.4128C111.987 25.3841 112.176 24.8613 112.176 23.7621V10.3677C112.176 9.26856 111.988 8.74285 109.8 8.71802V7.61792C112.287 7.69872 114.827 7.77807 117.363 7.77807C119.929 7.77807 122.47 7.69872 125.035 7.61792C125.035 9.1897 125.14 11.1777 125.248 12.4331H123.888C123.722 9.13518 121.808 9.03394 118.971 9.03394H117.831C117.118 9.03394 116.925 9.26856 116.925 9.81618V16.1491H119.11C121.295 16.1491 122.057 15.6282 122.057 13.6364H123.202C123.119 14.4755 123.04 15.5216 123.04 16.7755C123.04 18.0319 123.119 19.261 123.202 20.0982H122.057C122.057 17.9277 121.295 17.4059 119.11 17.4059H116.925V23.9223C116.925 24.6802 117.309 24.9396 118.1 24.9396H119.3C122.469 24.9396 124.787 24.5225 125.441 21.3565H126.75C126.258 23.0597 125.96 24.7839 125.686 26.5105C123.039 26.4335 120.416 26.3527 117.771 26.3527C115.043 26.3527 112.286 26.4335 109.555 26.5105V25.4128H109.556Z" fill="white"/>
<path d="M126.204 7.61816C127.598 7.69897 128.987 7.77831 130.379 7.77831C131.717 7.77831 133.028 7.69897 134.367 7.61816V8.71826H133.818C133.084 8.82389 133.058 9.13543 133.058 9.47665C133.058 9.76433 133.195 10.3679 133.385 10.9691L136.684 21.6941H136.738L139.742 12.7731L139.034 10.183C138.678 8.875 138.458 8.71826 137.26 8.71826H136.63V7.61816C138.05 7.69897 139.497 7.77831 140.915 7.77831C142.472 7.77831 144.055 7.69897 145.612 7.61816V8.71826H145.12C144.164 8.71826 143.646 8.95435 143.646 9.42457C143.646 9.84465 143.784 10.3402 144.002 11.3084L146.567 22.1137H146.621L150.469 11.0728C150.691 10.4181 150.853 9.94687 150.853 9.42408C150.853 8.84775 150.251 8.71778 149.352 8.71778H148.694V7.61768C149.79 7.69848 151.071 7.77782 151.943 7.77782C152.872 7.77782 153.773 7.69848 154.699 7.61768V8.71778C153.418 8.71778 152.844 9.60711 152.379 10.8893L146.757 26.6655H143.7L140.616 15.8095H140.562L136.714 26.6655H133.658L128.445 10.787C127.84 9.00595 127.706 8.77035 126.204 8.77035V7.61816Z" fill="white"/>
<path d="M167.484 13.1938H165.819C165.738 10.5219 164.892 8.84889 161.643 8.84889C160.061 8.84889 158.507 9.47731 158.507 11.3606C158.507 15.155 168.794 13.7692 168.794 20.6248C168.794 25.0218 165.192 26.8531 161.016 26.8531C158.888 26.8531 156.158 26.2222 154.299 25.2005C154.41 23.6871 154.44 21.4582 154.44 19.9419H156.406C156.406 22.7958 157.631 25.125 160.854 25.125C162.871 25.125 164.698 24.392 164.698 22.6396C164.698 18.19 154.574 19.6016 154.574 12.8789C154.574 9.31911 157.439 7.27856 161.725 7.27856C163.744 7.27856 165.766 7.6709 167.729 8.0389L167.484 13.1938Z" fill="white"/>
</svg>